<?xml version="1.0" standalone="no"?>
<!DOCTYPE svg PUBLIC "-//W3C//DTD SVG 20010904//EN"
 "http://www.w3.org/TR/2001/REC-SVG-20010904/DTD/svg10.dtd">
<svg version="1.0" xmlns="http://www.w3.org/2000/svg"
 width="2000.000000pt" height="2000.000000pt" viewBox="0 0 2000.000000 2000.000000"
 preserveAspectRatio="xMidYMid meet">
<metadata>
Created by potrace 1.15, written by Peter Selinger 2001-2017
</metadata>
<g transform="translate(0.000000,2000.000000) scale(0.100000,-0.100000)"
fill="#000000" stroke="none">
<path d="M4370 19289 c-135 -8 -317 -26 -555 -54 -138 -17 -398 -56 -495 -75
-30 -6 -77 -15 -105 -20 -97 -17 -231 -48 -270 -62 -208 -74 -410 -206 -549
-360 -149 -164 -269 -393 -317 -603 -20 -88 -21 -5919 -1 -5980 42 -127 120
-275 183 -350 49 -58 128 -135 138 -135 6 0 11 -4 11 -8 0 -4 22 -21 50 -37
27 -17 50 -33 50 -37 0 -5 9 -8 20 -8 11 0 20 -3 20 -8 0 -4 15 -13 33 -20 68
-28 83 -35 99 -43 9 -5 36 -11 60 -15 24 -3 52 -10 63 -15 11 -5 41 -10 67
-11 l47 -3 -147 -151 c-264 -270 -957 -988 -1013 -1049 -81 -88 -89 -105 -89
-179 0 -55 4 -70 33 -112 60 -89 -5 -82 828 -83 626 -1 741 1 765 14 33 17
101 89 109 116 4 10 11 19 16 19 5 0 9 5 9 11 0 7 8 19 18 28 9 9 22 23 27 32
31 49 69 105 74 109 13 10 81 108 81 117 0 5 9 15 20 23 11 8 20 18 20 23 0 5
14 26 30 46 41 48 44 52 66 86 10 17 21 32 24 35 4 3 28 37 56 75 27 39 56 78
64 88 14 16 106 17 1672 17 1215 0 1658 -3 1658 -11 0 -6 12 -26 28 -44 44
-52 59 -72 63 -81 2 -5 45 -65 94 -132 50 -68 95 -131 100 -140 6 -9 20 -27
33 -41 12 -14 22 -29 22 -32 0 -5 30 -46 68 -94 4 -5 30 -41 57 -80 58 -81 57
-80 90 -122 53 -66 14 -63 812 -63 560 0 728 3 746 13 73 40 107 98 107 182 0
69 -19 113 -77 173 -27 27 -85 90 -130 138 -45 49 -139 148 -210 220 -70 72
-159 164 -197 205 -37 41 -150 159 -250 263 -99 104 -223 232 -273 285 l-93
96 50 3 c28 2 50 7 50 11 0 5 25 11 56 14 31 3 62 11 67 16 6 6 19 11 29 11
10 0 18 5 18 10 0 6 11 10 25 10 14 0 25 5 25 10 0 6 9 10 20 10 11 0 20 5 20
10 0 6 9 10 20 10 11 0 20 4 20 9 0 5 8 12 19 16 10 3 33 19 50 35 17 17 34
30 38 30 26 1 183 180 183 209 0 6 5 11 10 11 6 0 10 7 10 15 0 8 5 15 10 15
6 0 10 7 10 15 0 8 5 15 10 15 6 0 10 8 10 18 0 9 7 26 15 36 8 11 15 30 15
42 0 13 5 26 10 29 6 3 10 17 10 31 0 13 5 24 10 24 6 0 10 18 10 40 0 22 5
40 10 40 6 0 10 37 10 90 0 53 4 90 10 90 7 0 10 918 10 2735 0 1817 -3 2735
-10 2735 -6 0 -10 42 -10 105 0 63 -4 105 -10 105 -5 0 -10 23 -10 50 0 28 -4
50 -10 50 -5 0 -10 15 -10 34 0 19 -4 37 -9 40 -5 3 -12 22 -16 42 -3 20 -10
44 -15 53 -4 9 -18 39 -31 66 -13 28 -27 52 -31 53 -5 2 -8 12 -8 23 0 10 -3
19 -7 19 -5 0 -17 18 -27 40 -10 22 -27 48 -37 59 -11 11 -19 25 -19 31 0 5
-4 10 -8 10 -4 0 -15 12 -24 28 -22 37 -131 148 -193 197 -27 22 -51 43 -53
48 -2 4 -10 7 -18 7 -8 0 -14 4 -14 8 0 5 -12 15 -27 23 -16 8 -30 17 -33 20
-6 8 -111 61 -165 84 -22 9 -49 21 -60 26 -70 29 -210 64 -305 75 -25 3 -54 9
-65 14 -11 5 -38 11 -60 14 -22 3 -67 10 -100 15 -291 49 -673 92 -970 110
-176 11 -2182 11 -2365 0z m2266 -414 c19 -10 58 -15 114 -15 47 0 148 -7 225
-15 77 -8 166 -15 197 -15 31 0 60 -4 63 -10 3 -5 34 -10 69 -10 34 0 66 -4
72 -9 5 -5 36 -12 69 -15 109 -10 160 -17 180 -25 11 -5 61 -14 110 -21 50 -6
108 -14 130 -17 22 -3 44 -9 49 -14 6 -5 27 -9 47 -9 21 0 41 -4 44 -10 3 -5
15 -10 26 -10 10 0 27 -4 37 -9 34 -18 90 -41 101 -41 6 0 11 -4 11 -10 0 -5
5 -10 10 -10 23 0 158 -101 216 -162 75 -78 123 -145 158 -223 15 -33 32 -68
37 -77 5 -10 9 -27 9 -37 0 -11 4 -22 9 -25 9 -6 14 -29 33 -161 14 -93 17
-5519 4 -5618 -5 -31 -12 -60 -17 -63 -5 -3 -9 -14 -9 -24 0 -37 -66 -144
-125 -204 -58 -59 -167 -126 -204 -126 -9 0 -21 -4 -26 -9 -6 -5 -37 -12 -70
-16 -76 -9 -5189 -10 -5270 -1 -64 7 -64 7 -168 55 -67 31 -197 142 -197 169
0 6 -4 12 -10 12 -5 0 -10 7 -10 15 0 8 -4 15 -9 15 -5 0 -12 13 -16 30 -4 16
-11 32 -16 35 -5 4 -9 17 -9 30 0 13 -5 27 -10 30 -14 9 -14 5745 0 5745 6 0
10 15 10 34 0 19 4 37 9 40 5 3 12 26 15 51 4 25 11 45 17 45 5 0 9 9 9 20 0
11 5 20 10 20 6 0 10 9 10 20 0 11 5 20 10 20 6 0 10 5 10 10 0 12 52 94 63
98 4 2 7 8 7 13 0 13 125 136 175 174 22 16 42 32 45 35 15 17 205 100 231
100 10 0 19 5 19 10 0 6 18 10 40 10 22 0 40 4 40 9 0 5 24 11 53 14 46 4 138
19 307 49 30 5 82 12 115 14 33 3 64 10 70 15 5 5 35 9 66 9 32 0 61 5 64 10
3 6 34 10 68 10 34 0 100 5 147 11 47 5 152 13 233 17 97 5 151 12 156 20 10
16 337 20 1327 16 680 -3 795 -6 820 -19z m-2753 -7492 c-25 -38 -56 -80 -67
-95 -12 -14 -51 -68 -89 -120 -37 -51 -89 -122 -115 -158 -66 -90 -317 -437
-372 -514 -25 -35 -71 -100 -103 -145 l-58 -81 -354 0 -353 0 111 113 c62 63
146 151 187 197 41 45 90 97 109 114 18 17 42 40 52 51 10 11 105 109 211 217
106 109 231 238 278 288 47 50 96 101 109 113 41 38 71 71 71 79 0 5 97 8 215
8 l215 0 -47 -67z m2852 10 c22 -31 45 -61 51 -67 5 -6 37 -49 69 -96 32 -47
62 -86 67 -88 46 -19 -137 -22 -1347 -22 -1210 0 -1394 3 -1347 22 5 2 28 31
51 64 22 34 48 67 56 74 8 7 15 18 15 25 0 8 4 15 8 17 13 5 82 104 82 117 0
8 296 11 1128 11 l1127 0 40 -57z m1016 -62 c63 -65 143 -149 178 -187 109
-117 473 -497 666 -696 66 -68 131 -136 144 -151 l24 -27 -345 0 -345 0 -27
40 c-15 22 -33 48 -41 58 -19 21 -123 166 -212 292 -37 52 -70 97 -73 100 -3
3 -28 37 -55 75 -28 39 -53 75 -57 80 -37 47 -99 131 -118 161 -36 54 -115
159 -122 162 -4 2 -8 10 -8 17 0 7 -3 15 -8 17 -4 2 -35 42 -69 91 l-63 87
209 0 208 0 114 -119z"/>
<path d="M4005 18558 c-37 -20 -86 -73 -101 -107 -28 -67 -13 -167 32 -216 48
-52 79 -65 159 -65 83 0 114 11 156 57 42 44 49 67 49 146 0 67 -3 78 -30 116
-47 64 -82 81 -170 81 -41 0 -84 -6 -95 -12z"/>
<path d="M4732 18555 c-35 -19 -71 -56 -87 -89 -18 -36 -20 -158 -2 -189 19
-35 70 -87 84 -87 7 0 13 -4 13 -10 0 -7 280 -10 821 -10 l820 0 35 24 c20 13
47 41 61 61 21 31 25 48 25 115 0 89 -18 127 -83 173 l-37 27 -814 -1 c-634
-1 -818 -4 -836 -14z"/>
<path d="M6925 18547 c-70 -51 -94 -97 -95 -177 0 -69 19 -114 64 -155 42 -38
65 -45 143 -44 89 1 120 14 166 71 27 34 29 43 29 120 1 86 -6 110 -45 155
-36 41 -70 53 -154 53 -64 -1 -83 -4 -108 -23z"/>
<path d="M2905 17828 c-33 -18 -85 -71 -100 -102 -13 -25 -15 -249 -15 -1616
0 -1772 -7 -1617 72 -1685 l42 -35 2661 0 c2484 0 2662 1 2685 17 35 24 58 52
78 93 16 32 17 151 17 1615 0 1479 -1 1582 -17 1610 -24 41 -47 66 -85 93
l-31 22 -2644 0 c-1905 -1 -2649 -4 -2663 -12z m2455 -1718 l0 -1320 -1075 0
-1075 0 0 1320 0 1320 1075 0 1075 0 0 -1320z m2570 0 l0 -1320 -1075 0 -1075
0 0 1320 0 1320 1075 0 1075 0 0 -1320z"/>
<path d="M3365 13857 c-16 -5 -55 -19 -85 -29 -176 -61 -376 -252 -434 -414
-9 -27 -21 -57 -27 -66 -5 -10 -9 -29 -9 -42 0 -14 -4 -28 -10 -31 -6 -4 -10
-68 -10 -160 0 -92 4 -156 10 -160 6 -3 10 -17 10 -29 0 -57 77 -205 153 -296
63 -76 207 -189 240 -190 9 0 17 -4 17 -10 0 -5 8 -10 18 -10 10 0 22 -4 28
-8 5 -5 29 -14 54 -21 25 -7 55 -17 68 -22 32 -12 319 -12 327 1 3 6 17 10 30
10 13 0 27 5 30 10 3 6 15 10 26 10 10 0 27 4 37 9 9 5 33 17 52 26 134 63
269 195 321 315 8 16 17 30 21 30 5 0 8 8 8 18 0 10 4 22 8 28 5 5 14 29 21
54 7 25 17 53 23 64 13 25 12 309 -1 335 -6 11 -11 29 -11 40 0 12 -4 29 -9
39 -5 9 -14 29 -20 45 -25 62 -37 85 -75 142 -37 56 -111 136 -165 179 -71 56
-142 89 -282 134 -44 15 -322 14 -364 -1z m236 -407 c21 0 60 -12 90 -27 54
-28 135 -103 145 -135 3 -10 9 -18 12 -18 16 0 37 -98 36 -165 -2 -96 -33
-164 -106 -231 -111 -101 -264 -121 -392 -51 -39 21 -116 90 -116 105 0 4 -9
18 -20 32 -11 14 -20 33 -20 43 0 9 -4 17 -10 17 -6 0 -10 38 -10 95 0 57 4
95 10 95 6 0 10 6 10 13 0 18 24 67 33 67 4 0 7 6 7 14 0 16 54 71 90 91 78
43 108 55 142 55 23 0 38 5 38 12 0 9 3 9 12 0 7 -7 29 -12 49 -12z"/>
<path d="M7415 13860 c-11 -4 -40 -14 -65 -21 -119 -33 -266 -136 -358 -250
-50 -61 -122 -193 -122 -222 0 -9 -4 -18 -9 -21 -16 -11 -24 -80 -24 -231 -1
-167 5 -199 44 -277 5 -10 9 -22 9 -27 0 -28 92 -163 155 -226 98 -100 193
-158 320 -196 22 -6 48 -15 57 -20 23 -12 300 -12 330 0 13 5 43 15 68 22 55
16 177 78 228 116 43 32 122 107 122 117 0 3 10 17 23 31 28 33 87 141 87 160
0 8 4 15 8 15 4 0 13 21 20 48 8 26 18 55 23 66 13 23 14 303 1 336 -5 14 -15
43 -22 65 -6 22 -18 54 -25 70 -8 17 -18 42 -23 56 -16 40 -128 183 -168 215
-21 16 -49 39 -65 52 -15 12 -31 22 -37 22 -6 0 -12 4 -14 8 -4 10 -102 57
-153 72 -22 7 -50 16 -63 21 -29 11 -320 11 -347 -1z m295 -428 c103 -46 177
-136 204 -248 16 -68 16 -76 0 -140 -35 -142 -126 -226 -279 -260 -44 -10
-113 -1 -183 24 -61 21 -131 89 -169 161 -30 56 -33 71 -33 145 0 74 4 90 32
145 40 78 85 123 162 161 85 41 190 47 266 12z"/>
<path d="M4745 13678 c-32 -17 -85 -71 -101 -100 -18 -34 -19 -160 -1 -190 24
-42 62 -80 96 -94 28 -12 168 -14 835 -14 l802 0 42 27 c23 15 42 31 42 36 0
4 9 17 20 29 27 30 32 157 7 208 -14 29 -63 80 -95 98 -30 16 -1616 17 -1647
0z"/>
<path d="M4795 12953 c-63 -9 -118 -48 -152 -110 -18 -32 -16 -153 3 -191 8
-17 34 -47 56 -67 l42 -35 825 0 826 0 30 28 c64 57 77 87 77 172 0 90 -18
127 -86 176 l-41 29 -775 1 c-426 1 -788 -1 -805 -3z"/>
<path d="M13399 19295 c-3 -3 -82 -10 -175 -15 -387 -23 -805 -73 -1094 -130
-30 -6 -77 -15 -105 -20 -220 -40 -251 -49 -419 -125 -295 -133 -574 -453
-680 -779 -9 -27 -16 -59 -16 -71 0 -11 -4 -25 -9 -30 -5 -6 -12 -32 -16 -60
-10 -66 -11 -5850 -1 -5895 4 -19 11 -44 15 -55 5 -11 16 -45 26 -75 10 -30
31 -77 47 -103 15 -26 28 -50 28 -52 0 -2 14 -26 32 -52 46 -69 206 -224 256
-248 23 -11 42 -23 42 -27 0 -5 7 -8 15 -8 8 0 15 -4 15 -10 0 -5 9 -10 20
-10 11 0 20 -4 20 -10 0 -5 8 -10 18 -10 10 0 22 -3 25 -7 15 -14 114 -43 149
-43 21 0 38 -4 38 -10 0 -5 23 -10 51 -10 l51 0 -198 -207 c-109 -115 -338
-352 -509 -528 -582 -599 -534 -540 -535 -650 0 -60 4 -77 27 -112 14 -23 44
-50 66 -62 38 -21 46 -21 768 -21 565 0 734 3 752 13 31 17 87 69 87 80 0 5 8
17 18 26 26 24 72 88 72 100 0 6 5 11 10 11 6 0 10 6 10 13 0 7 9 19 20 27 11
8 20 19 20 25 0 6 11 22 25 37 14 15 25 31 25 36 0 4 8 17 18 28 9 10 35 44
57 74 22 30 48 64 57 74 10 11 18 24 18 28 0 5 9 19 20 31 41 45 70 85 70 97
0 7 8 20 18 29 10 9 33 37 52 64 l33 47 1658 0 1658 0 12 -22 c7 -13 15 -25
18 -28 4 -3 49 -63 100 -135 52 -71 106 -146 121 -165 15 -19 32 -45 38 -57 7
-12 18 -27 25 -35 7 -7 31 -38 53 -69 21 -30 54 -75 72 -100 18 -24 49 -68 70
-97 54 -78 64 -88 105 -111 37 -21 43 -21 767 -21 480 0 730 3 730 10 0 6 6
10 13 10 18 0 77 59 77 76 0 8 5 14 10 14 6 0 10 35 10 85 0 50 -4 85 -10 85
-5 0 -10 7 -10 16 0 8 -6 21 -12 28 -7 7 -56 59 -108 116 -52 57 -137 147
-189 200 -51 52 -155 160 -230 238 -75 79 -167 177 -206 217 -295 306 -441
459 -448 471 -6 11 2 14 38 14 25 0 45 4 45 9 0 4 24 11 53 14 29 3 73 14 98
25 24 11 59 26 77 33 17 8 32 17 32 21 0 5 7 8 15 8 9 0 21 4 28 10 32 26 108
80 112 80 10 0 125 119 125 129 0 5 4 11 8 13 13 5 82 111 82 125 0 7 5 13 10
13 6 0 10 9 10 20 0 11 5 20 10 20 6 0 10 9 10 20 0 11 5 20 10 20 6 0 10 11
10 25 0 14 4 25 9 25 5 0 11 12 14 28 3 15 10 45 16 67 6 22 11 77 11 123 0
48 4 82 10 82 7 0 10 922 10 2745 0 1823 -3 2745 -10 2745 -6 0 -10 40 -11 98
0 53 -5 120 -10 147 -6 28 -13 65 -16 83 -3 18 -9 35 -14 38 -5 3 -9 14 -9 25
0 10 -5 29 -12 42 -24 47 -28 57 -28 72 0 8 -4 15 -10 15 -5 0 -10 7 -10 15 0
17 -51 118 -62 123 -5 2 -8 10 -8 18 0 8 -4 14 -10 14 -5 0 -10 7 -10 15 0 8
-4 15 -10 15 -5 0 -10 6 -10 13 0 6 -15 30 -33 52 -37 45 -180 191 -217 220
-71 57 -184 128 -255 160 -44 19 -88 40 -97 45 -10 6 -26 10 -36 10 -10 0 -22
4 -27 8 -18 15 -119 40 -260 64 -33 5 -82 14 -110 19 -105 20 -227 40 -410 64
-161 22 -408 47 -650 66 -136 10 -2157 24 -2166 14z m1496 -405 c4 -6 104 -10
269 -10 185 0 265 -3 274 -12 7 -7 87 -14 219 -20 114 -5 216 -13 225 -19 10
-5 51 -9 91 -9 40 0 77 -4 83 -9 5 -5 36 -12 69 -15 56 -5 101 -11 250 -35 33
-5 104 -16 157 -23 53 -7 100 -16 104 -20 4 -5 27 -8 50 -8 24 0 46 -4 49 -10
3 -5 18 -10 33 -10 28 0 96 -21 108 -33 4 -4 13 -7 20 -7 18 0 128 -52 132
-62 2 -4 9 -8 14 -8 18 0 119 -80 182 -144 77 -78 147 -189 197 -311 10 -25
27 -101 41 -180 16 -90 23 -5536 8 -5630 -37 -219 -152 -358 -365 -440 -11 -5
-49 -13 -85 -18 -75 -11 -5165 -14 -5270 -2 -36 4 -69 11 -75 16 -5 5 -17 9
-27 9 -15 0 -48 16 -132 64 -58 33 -186 192 -186 231 0 8 -4 15 -10 15 -5 0
-10 14 -10 30 0 17 -4 30 -10 30 -7 0 -10 962 -10 2865 0 1903 3 2865 10 2865
6 0 10 18 10 40 0 22 5 40 10 40 6 0 10 13 10 29 0 17 5 33 10 36 6 3 10 15
10 26 0 10 5 19 10 19 6 0 10 4 10 10 0 17 34 90 42 90 5 0 8 7 8 15 0 8 5 15
10 15 6 0 10 7 10 15 0 8 5 15 10 15 6 0 10 5 10 10 0 31 226 240 259 240 6 0
11 5 11 10 0 6 9 10 19 10 11 0 21 4 23 8 4 11 126 62 148 62 10 0 22 5 25 10
3 6 22 10 41 10 19 0 34 5 34 10 0 6 22 10 48 10 27 0 52 3 56 8 4 4 51 13
104 20 53 7 122 18 152 23 30 6 82 13 115 15 33 3 64 10 70 15 5 5 37 9 72 9
35 0 63 4 63 10 0 6 35 10 85 10 47 0 85 4 85 8 0 5 95 13 210 19 134 6 215
14 222 21 9 9 88 12 274 12 165 0 265 4 269 10 4 6 190 10 525 10 335 0 521
-4 525 -10z m-2164 -7467 c-5 -10 -45 -66 -88 -125 -43 -58 -98 -134 -123
-169 -25 -34 -65 -90 -90 -124 -25 -34 -70 -97 -100 -139 -30 -42 -80 -110
-110 -151 -30 -40 -73 -99 -95 -130 -22 -32 -67 -94 -100 -139 -33 -45 -76
-105 -95 -134 l-35 -51 -360 0 c-273 0 -355 2 -340 11 11 6 23 16 26 21 11 16
223 236 469 486 268 273 370 380 370 387 0 2 60 65 133 139 l132 134 208 0
c195 1 207 0 198 -16z m2789 9 c0 -7 88 -132 117 -167 21 -25 103 -143 103
-149 0 -3 -610 -6 -1355 -6 l-1356 0 23 32 c13 18 31 40 41 49 9 9 17 20 17
24 0 6 47 74 82 120 53 67 68 89 68 96 0 5 503 9 1130 9 622 0 1130 -4 1130
-8z m982 -46 c29 -29 116 -120 193 -202 77 -81 177 -186 223 -232 45 -47 110
-115 143 -151 34 -36 132 -138 218 -227 86 -88 189 -195 230 -237 l73 -77
-345 0 -346 0 -69 93 c-37 50 -83 115 -102 142 -19 28 -36 52 -40 55 -3 3 -28
37 -55 75 -28 39 -53 75 -58 80 -12 15 -76 104 -122 169 -22 32 -50 68 -62 82
-13 14 -23 28 -23 33 0 4 -8 16 -18 27 -14 16 -113 153 -172 238 -22 31 -74
100 -81 106 -3 3 -8 12 -12 20 -4 8 -14 25 -23 38 l-16 22 206 0 206 0 52 -54z"/>
<path d="M12815 18548 c-33 -18 -75 -61 -90 -92 -18 -36 -20 -158 -2 -189 44
-79 95 -107 194 -107 85 0 126 21 170 85 21 31 25 49 26 111 0 95 -20 136 -93
187 -29 20 -172 24 -205 5z"/>
<path d="M13528 18535 c-58 -40 -88 -99 -88 -176 0 -67 17 -108 63 -152 51
-49 18 -47 886 -47 l820 0 51 50 c43 42 50 55 50 88 0 21 5 43 12 50 9 9 9 15
0 24 -7 7 -12 28 -12 47 0 40 -36 93 -84 122 -30 18 -61 19 -846 19 l-815 0
-37 -25z"/>
<path d="M15755 18549 c-34 -20 -76 -62 -92 -94 -20 -37 -22 -151 -4 -185 19
-35 72 -90 88 -90 7 0 13 -4 13 -10 0 -6 35 -10 84 -10 70 0 88 4 116 23 56
37 88 87 91 137 5 114 2 125 -50 182 l-49 53 -88 3 c-54 1 -97 -2 -109 -9z"/>
<path d="M11716 17817 c-45 -28 -80 -64 -97 -102 -18 -38 -19 -107 -19 -1618
0 -1531 1 -1579 19 -1615 19 -38 48 -67 88 -89 18 -10 572 -13 2678 -13 2110
0 2659 3 2671 13 69 56 94 92 94 136 0 17 5 33 10 36 7 4 10 527 10 1535 0
1008 -3 1531 -10 1535 -5 3 -10 19 -10 36 0 16 -6 39 -12 51 -17 29 -67 79
-96 96 -31 17 -5297 17 -5326 -1z m2464 -1712 l0 -1325 -1075 0 -1075 0 -2
1325 -3 1325 1078 0 1077 0 0 -1325z m2570 0 l0 -1325 -1075 0 -1075 0 -2
1325 -3 1325 1078 0 1077 0 0 -1325z"/>
<path d="M12154 13841 c-238 -68 -457 -282 -523 -511 -27 -94 -31 -125 -31
-224 0 -100 11 -179 31 -218 5 -10 9 -24 9 -31 0 -15 76 -168 88 -177 4 -3 27
-30 52 -60 25 -30 54 -62 65 -71 11 -9 36 -30 55 -47 36 -32 187 -112 212
-112 8 0 18 -4 24 -8 45 -40 365 -41 462 -1 12 5 32 13 45 18 48 19 140 67
157 84 11 9 22 17 24 17 24 0 176 173 176 200 0 6 4 10 9 10 10 0 61 111 61
134 0 9 5 16 10 16 6 0 10 15 10 34 0 19 5 36 11 38 7 2 11 60 11 172 0 108
-4 172 -11 179 -6 6 -11 21 -11 34 0 13 -4 31 -9 41 -6 9 -21 43 -35 76 -83
189 -256 341 -461 404 -77 24 -351 26 -431 3z m325 -418 c15 -7 31 -13 37 -13
5 0 35 -22 65 -49 150 -134 161 -339 25 -485 -64 -69 -133 -98 -236 -99 -83
-1 -180 23 -180 44 0 5 -6 9 -13 9 -16 0 -97 81 -97 97 0 6 -3 13 -7 15 -24
10 -43 84 -43 163 0 129 45 212 156 288 22 15 48 27 57 27 9 0 17 4 17 9 0 23
175 18 219 -6z"/>
<path d="M16230 13851 c-8 -5 -32 -12 -54 -15 -50 -9 -175 -75 -245 -129 -119
-92 -226 -256 -267 -407 -25 -94 -23 -311 4 -401 32 -107 92 -218 154 -284 15
-16 28 -33 28 -37 0 -27 257 -188 300 -188 6 0 18 -4 28 -9 47 -24 100 -31
225 -31 75 0 146 4 159 9 13 5 43 15 68 22 25 7 49 16 54 21 6 4 18 8 28 8 10
0 18 5 18 10 0 6 7 10 15 10 31 0 170 103 218 161 17 22 42 52 54 67 13 15 23
32 23 39 0 6 4 13 8 15 12 5 62 109 62 130 0 10 5 18 10 18 6 0 10 15 10 34 0
19 5 38 10 41 6 3 10 37 10 74 0 39 5 72 12 79 10 10 10 17 0 32 -6 11 -12 49
-12 84 0 36 -4 68 -10 71 -5 3 -10 19 -10 36 0 16 -4 37 -9 47 -5 9 -17 37
-27 62 -47 112 -197 289 -282 333 -15 7 -50 26 -78 40 -95 51 -178 67 -341 67
-82 0 -155 -4 -163 -9z m289 -428 c15 -7 31 -13 37 -13 17 0 127 -111 140
-140 28 -62 33 -77 39 -110 12 -69 4 -121 -31 -197 -30 -67 -84 -121 -154
-155 -104 -50 -192 -50 -300 0 -132 61 -205 205 -180 356 10 62 30 116 42 116
5 0 8 4 8 10 0 20 77 89 132 119 76 41 204 48 267 14z"/>
<path d="M13552 13665 c-35 -19 -81 -66 -97 -99 -9 -16 -15 -57 -15 -92 0 -88
33 -144 114 -191 16 -9 214 -12 832 -13 l810 0 34 25 c55 40 79 76 80 115 0
20 5 41 12 48 9 9 9 15 0 24 -7 7 -12 27 -12 46 0 43 -42 104 -91 131 -36 21
-47 21 -840 20 -632 -1 -809 -4 -827 -14z"/>
<path d="M13596 12943 c-44 -7 -104 -52 -132 -98 -19 -33 -24 -56 -24 -107 0
-58 4 -72 33 -114 60 -89 -16 -82 915 -83 l823 -1 49 50 c43 42 50 55 50 88 0
21 5 43 12 50 9 9 9 15 0 24 -7 7 -12 29 -12 50 0 31 -8 46 -42 82 -27 27 -58
48 -83 55 -39 11 -1519 14 -1589 4z"/>
<path d="M4485 9500 c-11 -5 -75 -9 -142 -9 -75 -1 -123 -5 -123 -11 0 -6 -40
-10 -99 -10 -59 0 -102 -4 -106 -10 -4 -6 -14 -10 -23 -9 -33 5 -257 -13 -267
-21 -5 -5 -37 -11 -70 -14 -155 -15 -181 -18 -190 -27 -5 -5 -30 -9 -55 -9
-25 0 -50 -4 -55 -9 -6 -5 -30 -12 -55 -15 -114 -14 -219 -32 -226 -38 -4 -5
-16 -8 -27 -8 -20 0 -69 -14 -112 -31 -11 -4 -37 -13 -57 -20 -21 -7 -38 -17
-38 -21 0 -4 -7 -8 -15 -8 -21 0 -95 -33 -95 -42 0 -5 -7 -8 -16 -8 -9 0 -24
-8 -33 -18 -9 -9 -29 -24 -46 -32 -16 -8 -38 -23 -47 -34 -10 -10 -18 -15 -18
-11 0 4 -8 -2 -19 -13 -10 -12 -21 -22 -25 -22 -12 0 -166 -158 -166 -170 0
-6 -4 -8 -10 -5 -5 3 -10 1 -10 -5 0 -7 -11 -25 -25 -42 -14 -16 -25 -36 -25
-44 0 -8 -4 -14 -10 -14 -5 0 -10 -7 -10 -16 0 -8 -4 -12 -10 -9 -5 3 -10 -1
-10 -9 0 -9 -4 -16 -10 -16 -5 0 -10 -9 -10 -20 0 -11 -4 -20 -10 -20 -5 0
-10 -9 -10 -20 0 -11 -4 -20 -10 -20 -5 0 -12 -16 -16 -35 -3 -19 -10 -35 -15
-35 -5 0 -9 -9 -9 -20 0 -11 -4 -20 -10 -20 -5 0 -10 -11 -10 -25 0 -14 -4
-25 -10 -25 -5 0 -10 -13 -10 -30 0 -16 -4 -30 -10 -30 -5 0 -10 -16 -10 -35
0 -19 -4 -35 -9 -35 -5 0 -12 -24 -16 -52 -4 -29 -9 -1353 -12 -2943 -4 -2888
-3 -2958 28 -3017 5 -10 9 -27 9 -38 0 -11 5 -20 10 -20 6 0 10 -11 10 -25 0
-14 5 -25 10 -25 6 0 10 -12 10 -26 0 -14 4 -23 10 -19 5 3 10 -3 10 -14 0
-12 5 -21 10 -21 6 0 10 -9 10 -19 0 -11 7 -26 15 -35 8 -8 15 -17 15 -21 0
-3 9 -15 20 -27 11 -12 20 -28 20 -35 0 -8 5 -11 10 -8 6 3 10 1 10 -5 0 -19
117 -130 136 -130 9 0 14 -3 11 -6 -9 -9 32 -44 66 -56 15 -6 27 -14 27 -19 0
-5 9 -9 21 -9 11 0 17 -5 14 -10 -3 -5 3 -10 14 -10 12 0 21 -4 21 -10 0 -5
11 -10 25 -10 14 0 25 -4 25 -10 0 -5 11 -10 25 -10 14 0 25 -4 25 -10 0 -5
27 -12 60 -16 33 -4 60 -11 60 -15 0 -5 32 -9 70 -9 l70 0 -202 -203 c-220
-221 -248 -251 -248 -270 0 -8 -4 -7 -10 3 -8 12 -10 11 -10 -7 0 -13 -8 -24
-20 -28 -11 -3 -20 -10 -20 -15 0 -4 -116 -125 -257 -267 -142 -143 -274 -279
-292 -303 -19 -23 -68 -76 -108 -116 -40 -40 -73 -80 -73 -89 0 -8 -4 -15 -10
-15 -6 0 -10 -33 -10 -80 0 -47 4 -80 10 -80 6 0 10 -7 10 -15 0 -19 44 -65
78 -82 19 -10 189 -13 750 -13 640 0 729 2 761 16 32 14 131 128 131 150 0 4
8 14 18 23 26 24 72 88 72 100 0 6 5 11 10 11 6 0 10 6 10 14 0 8 3 16 8 18
12 5 82 101 82 112 0 7 9 18 20 26 11 8 20 18 20 22 0 5 14 22 30 40 17 17 30
36 30 42 0 6 9 18 20 26 11 8 20 20 20 27 0 7 11 23 25 37 14 14 25 28 25 30
0 3 15 26 33 50 17 24 41 55 51 70 l19 26 1663 0 c1233 0 1664 -3 1664 -11 0
-7 8 -19 18 -28 9 -9 24 -26 32 -38 71 -103 106 -150 122 -164 10 -9 18 -22
18 -28 0 -14 41 -71 83 -115 15 -16 27 -33 27 -39 0 -9 32 -52 70 -94 11 -12
20 -28 20 -35 0 -8 9 -20 20 -28 11 -8 20 -19 20 -25 0 -6 11 -22 25 -37 14
-15 25 -31 25 -35 0 -5 9 -15 20 -23 11 -8 20 -20 20 -27 0 -7 5 -13 10 -13 6
0 10 -6 10 -13 0 -19 53 -67 73 -67 9 0 17 -4 17 -10 0 -7 248 -10 725 -10
651 0 729 2 758 16 17 9 37 22 43 29 79 79 70 243 -17 300 -16 11 -31 27 -34
35 -6 19 -67 85 -276 297 -87 90 -159 165 -159 169 0 10 -28 34 -39 34 -6 0
-11 7 -11 16 0 8 -4 12 -10 9 -5 -3 -10 -1 -10 5 0 6 -15 26 -32 45 -18 19
-38 40 -44 47 -6 7 -31 31 -55 54 -24 23 -58 56 -75 75 -17 19 -42 42 -55 52
-13 9 -19 17 -15 17 4 0 -6 13 -23 29 -17 16 -31 34 -31 41 0 6 -4 8 -10 5 -5
-3 -10 1 -10 10 0 9 -4 13 -10 10 -5 -3 -10 1 -10 9 0 9 -5 16 -11 16 -11 0
-39 25 -39 35 0 3 -50 55 -111 116 l-110 109 60 0 c34 0 61 4 61 9 0 4 28 11
63 15 34 3 64 11 65 16 2 6 15 10 28 10 14 0 22 4 19 10 -4 6 5 10 19 10 14 0
26 5 26 10 0 6 9 10 20 10 11 0 20 5 20 10 0 6 9 10 20 10 11 0 20 4 20 9 0 5
10 13 22 17 13 4 35 20 49 35 15 16 32 29 38 29 20 0 146 136 166 179 11 22
23 41 28 41 4 0 7 7 7 16 0 8 5 12 10 9 6 -3 10 3 10 14 0 12 5 21 10 21 6 0
10 9 10 20 0 11 4 20 10 20 5 0 12 16 16 35 3 19 10 38 15 41 5 3 9 18 9 35 0
16 5 29 10 29 6 0 10 18 10 41 0 24 4 38 10 34 6 -4 10 28 10 90 0 62 4 94 10
90 7 -4 10 910 10 2735 0 1825 -3 2739 -10 2735 -6 -4 -10 33 -10 105 0 72 -4
109 -10 105 -6 -4 -10 13 -10 45 0 28 -4 49 -9 46 -5 -3 -11 13 -14 37 -8 58
-30 137 -39 137 -5 0 -8 9 -8 20 0 11 -4 20 -10 20 -5 0 -10 12 -10 26 0 14
-4 23 -10 19 -6 -4 -10 6 -10 22 0 22 -2 25 -10 13 -8 -13 -10 -13 -10 2 0 21
-50 118 -61 118 -5 0 -9 9 -9 21 0 11 -4 17 -10 14 -5 -3 -10 1 -10 9 0 9 -4
16 -8 16 -4 0 -16 14 -27 32 -22 38 -168 186 -187 190 -7 2 -21 13 -31 26 -10
12 -25 22 -34 22 -9 0 -23 8 -32 18 -22 24 -70 56 -108 73 -18 7 -33 17 -33
21 0 5 -7 8 -16 8 -8 0 -40 11 -70 25 -30 14 -60 25 -68 25 -7 0 -16 3 -20 7
-12 12 -80 33 -108 33 -15 0 -29 4 -32 9 -6 9 -138 27 -163 23 -6 -2 -14 2
-18 8 -3 5 -26 10 -50 10 -24 0 -47 5 -50 10 -3 6 -30 10 -60 10 -30 0 -57 5
-60 10 -3 6 -30 10 -60 10 -30 0 -57 5 -60 10 -3 6 -31 10 -61 10 -31 0 -63 4
-73 9 -10 6 -81 13 -159 17 -78 4 -142 11 -142 15 0 5 -45 9 -100 9 -56 0
-100 4 -100 9 0 6 -62 13 -137 16 -226 10 -2246 14 -2268 5z m2148 -405 c16
-11 49 -15 122 -15 55 0 129 -5 165 -10 36 -5 120 -13 188 -16 67 -4 122 -11
122 -16 0 -4 29 -8 64 -8 36 0 68 -4 71 -10 3 -5 35 -10 70 -10 35 0 67 -4 70
-10 3 -5 31 -10 61 -10 30 0 54 -4 54 -9 0 -4 35 -11 78 -14 43 -3 91 -11 106
-17 15 -5 45 -10 67 -10 21 0 39 -4 39 -10 0 -5 20 -10 45 -10 25 0 45 -4 45
-10 0 -5 14 -10 30 -10 17 0 30 -4 30 -10 0 -5 11 -10 25 -10 14 0 25 -4 25
-10 0 -5 16 -12 35 -16 19 -3 35 -10 35 -15 0 -5 8 -9 18 -9 10 0 24 -9 32
-20 8 -11 18 -20 22 -20 32 0 218 -169 218 -198 0 -7 5 -10 10 -7 6 3 10 -1
10 -9 0 -9 5 -16 10 -16 6 0 10 -7 10 -15 0 -8 5 -15 10 -15 6 0 10 -7 10 -15
0 -8 4 -15 8 -15 4 0 16 -22 27 -50 11 -27 23 -50 27 -50 4 0 8 -9 8 -19 0
-11 5 -23 10 -26 6 -3 10 -23 10 -43 0 -28 3 -33 10 -22 7 11 10 2 10 -33 0
-27 4 -46 8 -43 5 3 12 -49 15 -116 9 -158 9 -5427 1 -5546 -4 -50 -11 -89
-15 -86 -5 3 -9 -11 -9 -31 0 -22 -4 -34 -10 -30 -6 4 -10 -5 -10 -20 0 -15
-4 -24 -10 -20 -5 3 -10 -3 -10 -14 0 -12 -4 -21 -8 -21 -5 0 -17 -18 -27 -40
-10 -22 -22 -40 -27 -40 -4 0 -26 -19 -49 -42 -22 -23 -50 -47 -62 -54 -80
-44 -124 -64 -144 -64 -13 0 -23 -4 -23 -10 0 -6 -29 -10 -67 -10 -48 0 -64
-3 -53 -10 10 -6 -899 -10 -2575 -10 -1676 0 -2585 4 -2575 10 10 7 -7 10 -57
10 -42 0 -73 4 -73 10 0 6 -13 10 -30 10 -16 0 -30 5 -30 10 0 6 -9 10 -20 10
-11 0 -20 3 -20 8 0 8 -57 42 -71 42 -11 0 -44 31 -77 74 -12 16 -22 26 -22
22 0 -4 -7 -1 -15 8 -8 8 -15 22 -15 30 0 9 -4 16 -10 16 -5 0 -10 5 -10 11 0
6 -7 17 -15 25 -8 9 -15 24 -15 34 0 10 -4 22 -10 25 -5 3 -10 19 -10 36 0 16
-4 29 -10 29 -7 0 -10 965 -10 2876 0 1914 3 2873 10 2869 6 -4 10 10 10 34 0
22 4 42 9 45 5 3 12 26 15 51 4 25 11 45 17 45 5 0 9 9 9 20 0 11 5 20 10 20
6 0 10 9 10 20 0 11 5 20 10 20 6 0 10 7 10 15 0 8 4 15 9 15 5 0 12 8 15 18
12 32 33 62 39 55 4 -3 7 1 7 11 0 16 143 166 159 166 4 0 22 14 39 30 18 17
39 30 47 30 8 0 15 5 15 10 0 6 9 10 20 10 11 0 20 5 20 10 0 6 5 10 11 10 11
0 67 23 101 41 10 5 27 9 38 9 11 0 20 5 20 10 0 6 18 10 40 10 22 0 40 5 40
10 0 6 22 10 49 10 26 0 61 4 77 10 16 5 63 14 104 20 41 6 100 15 130 21 30
6 85 13 123 16 37 2 67 9 67 14 0 5 29 9 65 9 37 0 65 4 65 10 0 6 31 10 73
10 39 0 126 7 192 15 66 8 163 15 215 15 68 0 102 4 117 15 28 19 291 23 1336
19 690 -3 801 -6 820 -19z m-2693 -7431 c0 -4 -8 -14 -18 -23 -10 -9 -27 -31
-37 -48 -11 -18 -23 -33 -27 -33 -4 0 -8 -7 -8 -16 0 -9 -8 -24 -18 -33 -10
-9 -38 -44 -60 -77 -23 -34 -49 -67 -57 -74 -8 -7 -15 -17 -15 -23 0 -5 -8
-17 -18 -26 -9 -9 -35 -43 -57 -76 -22 -33 -42 -62 -45 -65 -14 -13 -120 -160
-120 -165 0 -4 -7 -13 -15 -22 -9 -8 -34 -43 -57 -77 -23 -33 -44 -63 -47 -66
-4 -3 -22 -27 -41 -53 -19 -27 -45 -61 -57 -77 -13 -15 -23 -32 -23 -38 0 -5
-7 -16 -16 -23 -9 -7 -35 -40 -57 -74 -23 -33 -50 -70 -62 -83 l-21 -22 -358
2 -357 3 150 153 c83 84 151 158 151 163 0 6 5 7 10 4 6 -3 10 1 10 10 0 9 5
13 10 10 6 -3 10 -1 10 5 0 6 10 22 23 35 12 13 30 33 40 46 9 13 17 20 17 15
0 -8 63 56 93 95 9 13 17 20 17 15 0 -8 151 144 193 195 15 18 27 30 27 26 0
-4 15 9 33 30 17 21 49 55 70 75 20 20 37 41 37 47 0 6 7 11 16 11 8 0 12 5 9
10 -3 6 2 10 11 10 10 0 15 3 11 6 -3 4 20 33 51 65 31 32 62 63 67 68 6 6 29
28 52 50 23 21 39 41 36 45 -4 3 96 6 220 6 125 0 227 -3 227 -6z m2770 -14
c0 -11 4 -20 8 -20 4 0 16 -15 27 -32 10 -18 28 -43 40 -55 11 -12 31 -38 45
-58 14 -19 33 -45 43 -57 9 -11 17 -24 17 -27 0 -3 14 -20 30 -38 17 -18 30
-34 30 -37 0 -4 -621 -6 -1380 -6 -759 0 -1380 2 -1380 5 0 4 18 25 75 89 11
12 21 28 23 36 2 8 14 25 28 38 13 14 24 29 24 34 0 5 11 20 25 34 14 14 25
28 25 32 0 4 11 20 25 36 13 16 22 33 19 37 -3 5 492 9 1135 9 1134 0 1141 0
1141 -20z m1002 -56 c115 -120 146 -154 141 -154 -2 0 75 -79 172 -176 96 -97
175 -178 175 -180 0 -9 55 -67 233 -246 103 -104 187 -193 187 -199 0 -6 5 -7
10 -4 6 3 10 1 10 -5 0 -6 10 -21 23 -34 12 -13 37 -39 55 -59 18 -21 37 -37
42 -37 6 0 10 -7 10 -15 0 -13 -45 -15 -345 -15 l-346 0 -24 25 c-14 13 -25
27 -25 31 0 6 -69 104 -80 114 -4 3 -28 37 -55 75 -27 39 -53 72 -57 73 -5 2
-8 8 -8 13 0 6 -5 15 -10 22 -37 44 -80 103 -80 111 0 5 -8 16 -18 25 -10 9
-27 31 -37 49 -11 17 -23 32 -27 32 -4 0 -8 5 -8 11 0 6 -6 16 -12 24 -29 29
-48 56 -48 65 0 5 -9 15 -19 22 -11 8 -25 26 -32 41 -7 15 -16 27 -20 27 -4 0
-10 8 -14 19 -3 10 -18 32 -34 49 -16 16 -32 39 -36 51 -3 11 -10 21 -15 21
-5 0 -12 9 -15 20 -4 11 -17 32 -31 45 -13 13 -24 27 -24 30 0 3 -5 11 -10 18
-38 45 -50 61 -50 67 0 4 -8 16 -17 28 -17 19 -30 35 -62 75 -13 16 0 17 208
17 l221 0 72 -76z"/>
<path d="M4003 8767 c-23 -13 -78 -70 -92 -96 -15 -27 -14 -156 2 -183 11 -20
39 -50 82 -86 16 -14 195 -16 195 -2 0 3 11 13 25 20 36 19 73 81 75 126 5
111 3 120 -49 173 -43 44 -55 51 -93 53 -98 4 -129 3 -145 -5z"/>
<path d="M4744 8768 c-14 -3 -43 -26 -65 -50 l-40 -43 3 -98 3 -98 45 -44 45
-44 823 -1 822 0 35 23 c19 12 35 28 35 35 0 6 3 12 8 12 18 0 35 68 34 137 0
62 -4 77 -21 92 -12 10 -21 22 -21 27 0 5 -15 19 -33 32 l-33 22 -807 3 c-444
1 -819 -1 -833 -5z"/>
<path d="M6942 8764 c-28 -12 -72 -56 -91 -92 -14 -26 -15 -172 -1 -172 6 0
10 -7 10 -15 0 -18 52 -75 69 -75 6 0 11 -4 11 -10 0 -6 34 -10 81 -10 129 0
190 46 202 155 9 82 -5 139 -44 178 -19 19 -45 38 -59 42 -39 12 -148 12 -178
-1z"/>
<path d="M2900 8030 c13 -8 12 -10 -3 -10 -23 0 -77 -53 -77 -74 0 -9 -4 -16
-10 -16 -7 0 -10 -544 -10 -1611 0 -1071 3 -1608 10 -1604 6 3 10 -1 10 -10 0
-17 10 -31 50 -70 l25 -25 2667 0 2666 0 39 38 c74 72 68 -79 68 1685 0 1263
-3 1591 -12 1595 -7 2 -13 9 -13 15 -1 16 -36 57 -49 57 -6 0 -11 5 -11 10 0
6 -7 10 -16 10 -8 0 -12 5 -9 10 4 7 -887 10 -2667 10 -1729 0 -2668 -4 -2658
-10z m2470 -1710 l0 -1330 -1087 0 -1088 0 3 1330 2 1330 1085 0 1085 0 0
-1330z m2570 0 l0 -1330 -1087 0 -1088 0 3 1330 2 1330 1085 0 1085 0 0 -1330z"/>
<path d="M3390 4070 c-8 -5 -27 -10 -42 -10 -15 0 -30 -4 -33 -10 -3 -5 -17
-10 -31 -10 -13 0 -24 -4 -24 -10 0 -5 -9 -10 -20 -10 -11 0 -20 -4 -20 -10 0
-5 -9 -10 -20 -10 -11 0 -20 -4 -20 -9 0 -5 -10 -11 -22 -15 -13 -3 -36 -17
-53 -32 -16 -14 -41 -32 -55 -41 -14 -8 -41 -35 -60 -61 -19 -25 -45 -56 -57
-68 -13 -13 -23 -30 -23 -39 0 -8 -4 -15 -10 -15 -5 0 -10 -7 -10 -15 0 -8 -4
-15 -10 -15 -5 0 -10 -9 -10 -20 0 -11 -3 -20 -8 -20 -10 0 -33 -66 -39 -112
-3 -21 -9 -38 -14 -38 -5 0 -9 -76 -9 -170 0 -107 4 -170 10 -170 6 0 10 -15
10 -32 0 -18 7 -46 15 -62 8 -15 15 -35 15 -42 0 -8 5 -14 10 -14 6 0 10 -9
10 -20 0 -11 5 -20 10 -20 6 0 10 -7 10 -15 0 -8 5 -15 10 -15 6 0 10 -9 10
-20 0 -11 3 -20 8 -21 4 0 30 -29 57 -64 28 -35 61 -69 75 -77 14 -7 32 -20
40 -29 26 -27 94 -69 112 -69 10 0 18 -4 18 -10 0 -5 9 -10 20 -10 11 0 20 -4
20 -10 0 -5 11 -10 24 -10 14 0 28 -4 31 -10 3 -5 19 -10 35 -10 16 0 32 -4
35 -10 4 -6 70 -10 166 -10 99 0 159 4 159 10 0 6 13 10 29 10 17 0 33 5 36
10 3 6 17 10 31 10 13 0 24 5 24 10 0 6 11 10 24 10 13 0 26 3 28 8 2 4 21 16
43 27 22 11 47 28 56 37 9 10 20 18 25 18 9 0 103 96 136 137 9 12 25 37 34
55 9 18 20 35 23 38 4 3 14 21 23 40 34 75 48 113 48 135 0 13 5 25 11 27 14
5 14 317 0 331 -6 6 -11 23 -11 38 0 15 -4 31 -10 34 -5 3 -10 14 -10 23 0 21
-66 150 -100 194 -68 91 -224 218 -265 218 -9 0 -13 5 -10 10 4 6 -5 10 -19
10 -14 0 -26 5 -26 10 0 6 -11 10 -24 10 -14 0 -27 4 -30 9 -10 15 -76 23
-226 27 -87 3 -151 0 -160 -6z m211 -400 c27 0 49 -4 49 -9 0 -5 13 -12 29
-16 16 -3 35 -13 42 -21 6 -8 16 -14 21 -14 13 0 88 -77 88 -90 0 -5 3 -10 8
-10 17 0 56 -133 54 -185 -2 -65 -36 -175 -54 -175 -4 0 -8 -4 -8 -10 0 -25
-77 -92 -140 -121 -14 -6 -34 -16 -44 -21 -26 -14 -199 -13 -204 1 -2 6 -12
11 -21 11 -10 0 -29 8 -42 19 -13 10 -33 21 -44 25 -11 3 -29 19 -40 36 -11
16 -23 30 -27 30 -5 0 -8 7 -8 15 0 8 -3 15 -7 15 -9 0 -33 49 -33 67 0 7 -4
13 -10 13 -6 0 -10 40 -10 100 0 60 4 100 10 100 6 0 10 9 10 20 0 11 5 20 10
20 6 0 10 9 10 20 0 11 5 20 10 20 6 0 10 5 10 11 0 12 64 77 95 96 56 35 102
53 136 53 21 0 41 5 45 12 6 9 9 9 12 0 2 -7 23 -12 53 -12z"/>
<path d="M7405 4068 c-16 -6 -38 -14 -47 -19 -10 -5 -27 -9 -38 -9 -11 0 -20
-4 -20 -10 0 -5 -9 -10 -20 -10 -11 0 -20 -4 -20 -10 0 -5 -7 -10 -15 -10 -17
0 -88 -42 -119 -71 -11 -11 -25 -19 -30 -20 -6 0 -31 -25 -56 -55 -25 -30 -50
-60 -55 -67 -29 -33 -75 -107 -75 -121 0 -9 -4 -16 -9 -16 -5 0 -12 -18 -16
-40 -4 -22 -11 -42 -16 -46 -5 -3 -9 -18 -9 -34 0 -16 -4 -32 -10 -35 -6 -4
-10 -72 -10 -171 0 -103 4 -164 10 -164 6 0 10 -13 10 -29 0 -17 5 -33 10 -36
6 -3 10 -14 10 -23 0 -9 7 -30 15 -46 8 -15 15 -34 15 -40 0 -7 9 -22 20 -34
11 -12 20 -25 20 -29 1 -20 113 -143 185 -203 17 -14 48 -34 70 -45 22 -11 42
-23 43 -27 2 -5 15 -8 28 -8 13 0 24 -4 24 -10 0 -5 11 -10 24 -10 14 0 28 -4
31 -10 3 -5 19 -10 36 -10 16 0 29 -4 29 -10 0 -6 60 -10 159 -10 96 0 162 4
166 10 3 6 17 10 31 10 13 0 32 4 42 9 9 5 28 13 42 19 14 6 44 18 68 28 23
10 42 21 42 26 0 4 6 8 13 8 6 0 24 10 39 23 15 12 45 37 67 54 35 30 131 145
131 159 0 3 7 12 15 20 8 9 15 24 15 35 0 10 5 19 10 19 6 0 10 11 10 25 0 14
5 25 10 25 6 0 10 9 10 19 0 11 5 23 10 26 6 3 10 19 10 35 0 15 5 30 11 32
14 5 14 317 0 331 -6 6 -11 23 -11 38 0 15 -4 31 -10 34 -5 3 -10 15 -10 26 0
10 -4 19 -10 19 -5 0 -10 9 -10 20 0 21 -42 100 -80 151 -64 84 -170 176 -239
206 -22 10 -41 21 -41 25 0 5 -7 8 -15 8 -8 0 -23 4 -33 9 -32 16 -67 29 -97
37 -49 12 -327 13 -360 2z m241 -398 c24 0 44 -4 44 -10 0 -5 8 -10 18 -10 10
0 28 -9 40 -20 12 -11 25 -20 29 -20 13 0 93 -77 93 -89 0 -6 4 -11 10 -11 5
0 12 -16 16 -35 3 -19 10 -38 15 -41 5 -3 9 -18 9 -34 0 -16 5 -41 12 -55 9
-19 9 -28 0 -37 -7 -7 -12 -25 -12 -40 0 -16 -4 -36 -9 -46 -4 -9 -17 -35 -27
-57 -19 -40 -84 -115 -100 -115 -5 0 -20 -9 -34 -20 -14 -11 -32 -20 -42 -20
-9 0 -18 -5 -20 -11 -2 -7 -39 -11 -99 -11 -90 0 -99 2 -164 37 -38 20 -77 46
-87 58 -10 12 -22 27 -28 34 -5 7 -10 16 -10 22 0 5 -3 11 -7 13 -5 2 -18 23
-30 46 -19 36 -23 60 -23 138 0 56 4 94 10 94 6 0 10 6 10 13 0 18 24 67 33
67 4 0 7 6 7 13 0 18 69 87 87 87 7 0 13 4 13 8 0 16 96 52 138 52 22 0 44 5
48 12 6 9 9 9 12 0 2 -7 22 -12 48 -12z"/>
<path d="M4688 3841 l-48 -49 0 -88 c0 -92 9 -119 56 -163 45 -42 34 -41 869
-41 l807 0 39 28 c21 15 39 31 39 35 0 4 9 17 20 29 11 12 21 38 22 57 3 65
-4 136 -13 139 -5 2 -9 10 -9 18 0 8 -4 14 -10 14 -5 0 -10 6 -10 13 0 6 -16
22 -35 35 l-35 22 -822 0 -823 0 -47 -49z"/>
<path d="M4736 3147 c-76 -46 -96 -85 -96 -187 0 -93 7 -111 65 -162 l30 -28
828 0 828 0 24 24 c13 13 26 21 29 18 3 -3 6 1 6 9 0 9 9 24 19 36 33 35 33
176 1 211 -11 12 -20 25 -20 29 0 4 -18 20 -39 36 l-39 27 -809 -1 c-607 0
-813 -3 -827 -12z"/>
<path d="M13295 9490 c-4 -6 -58 -10 -130 -10 -72 0 -126 -4 -130 -10 -3 -5
-45 -10 -93 -11 -48 0 -125 -5 -172 -10 -79 -8 -113 -12 -302 -39 -40 -6 -95
-13 -123 -16 -27 -3 -54 -10 -60 -15 -5 -5 -33 -9 -62 -9 -29 0 -53 -4 -53 -8
0 -5 -44 -14 -97 -21 -150 -18 -177 -22 -188 -32 -5 -5 -24 -9 -41 -9 -18 0
-36 -4 -39 -10 -3 -5 -15 -10 -26 -10 -10 0 -29 -5 -42 -12 -44 -23 -57 -28
-67 -28 -17 0 -90 -34 -90 -42 0 -5 -9 -8 -20 -8 -11 0 -20 -4 -20 -10 0 -5
-5 -10 -10 -10 -12 0 -92 -51 -102 -65 -4 -5 -8 -6 -8 -1 0 5 -16 -7 -35 -27
-20 -21 -40 -37 -46 -37 -5 0 -46 -36 -90 -80 -44 -44 -77 -80 -74 -80 4 0 0
-6 -7 -14 -32 -34 -48 -57 -48 -72 0 -8 -4 -12 -10 -9 -5 3 -10 -1 -10 -9 0
-9 -4 -16 -10 -16 -5 0 -10 -7 -10 -15 0 -8 -4 -15 -8 -15 -5 0 -17 -20 -28
-45 -10 -25 -22 -45 -26 -45 -4 0 -8 -9 -8 -20 0 -11 -4 -20 -10 -20 -5 0 -10
-9 -10 -20 0 -11 -4 -20 -10 -20 -5 0 -10 -9 -10 -20 0 -11 -4 -20 -10 -20 -5
0 -10 -11 -10 -25 0 -14 -3 -25 -8 -25 -9 0 -42 -145 -42 -187 0 -18 -4 -33
-10 -33 -7 0 -10 -980 -10 -2919 0 -1936 3 -2922 10 -2926 6 -3 10 -20 10 -36
0 -35 48 -182 61 -187 5 -2 9 -12 9 -23 0 -10 5 -19 10 -19 6 0 10 -7 10 -16
0 -8 5 -12 10 -9 6 3 10 -3 10 -14 0 -12 5 -21 10 -21 6 0 10 -6 10 -14 0 -8
16 -30 35 -50 19 -20 30 -36 25 -36 -6 0 13 -23 41 -50 28 -28 56 -50 61 -50
5 0 6 -4 3 -10 -3 -5 1 -10 10 -10 8 0 29 -13 46 -30 17 -16 40 -32 50 -35 11
-4 19 -11 19 -16 0 -5 9 -9 20 -9 11 0 20 -4 20 -10 0 -5 9 -10 20 -10 11 0
20 -4 20 -10 0 -5 11 -10 25 -10 14 0 25 -4 25 -10 0 -5 8 -10 18 -10 10 0 23
-5 29 -11 6 -6 38 -13 72 -16 33 -3 58 -10 55 -14 -3 -5 25 -9 61 -9 l66 0
-183 -184 c-186 -187 -248 -252 -248 -262 0 -8 -27 -34 -35 -34 -8 0 -35 -26
-35 -34 0 -3 -93 -100 -207 -215 -115 -115 -222 -224 -240 -242 -18 -19 -38
-39 -45 -45 -7 -5 -26 -27 -43 -48 -16 -21 -65 -74 -108 -117 -42 -44 -86 -95
-97 -114 -24 -43 -27 -138 -5 -182 15 -31 58 -73 93 -92 28 -15 1492 -16 1492
-1 0 6 6 10 13 10 18 0 77 54 77 70 0 7 8 20 18 29 22 20 92 116 92 126 0 4 8
15 18 24 26 24 72 88 72 100 0 6 5 11 10 11 6 0 10 4 10 10 0 9 6 18 53 72 9
12 17 24 17 27 0 3 14 22 30 41 16 19 30 39 30 43 0 4 9 18 20 30 35 38 70 85
70 92 0 4 14 24 30 44 43 51 46 55 59 79 l12 22 1664 0 1664 0 11 -21 c13 -24
36 -53 68 -86 12 -13 22 -30 22 -38 0 -8 3 -15 8 -15 4 0 21 -21 37 -45 17
-25 33 -45 38 -45 4 0 7 -6 7 -12 0 -7 13 -28 29 -47 17 -19 28 -38 25 -43 -3
-4 -1 -8 5 -8 5 0 25 -21 42 -47 18 -27 36 -50 40 -53 3 -3 23 -31 43 -62 20
-32 41 -58 46 -58 6 0 10 -7 10 -15 0 -8 5 -15 10 -15 6 0 10 -7 10 -15 0 -8
4 -15 8 -15 4 0 16 -15 27 -32 10 -18 27 -40 37 -49 10 -9 18 -23 18 -30 0 -8
10 -21 21 -29 12 -8 27 -21 35 -28 7 -6 17 -12 23 -12 6 0 11 -4 11 -10 0 -7
252 -10 735 -10 483 0 735 3 735 10 0 6 6 10 13 10 18 0 77 59 77 76 0 8 5 14
10 14 6 0 10 33 10 80 0 47 -4 80 -10 80 -5 0 -10 7 -10 16 0 8 -20 36 -45 60
-24 25 -54 59 -67 77 -13 18 -106 116 -208 218 -206 207 -230 234 -230 252 0
8 -4 7 -10 -3 -8 -12 -10 -10 -10 8 0 13 -4 20 -10 17 -5 -3 -10 -2 -10 3 0 6
-81 92 -180 192 -99 101 -180 187 -180 192 0 5 -3 7 -7 5 -5 -3 -14 1 -21 9
-7 8 -8 14 -3 14 6 0 -46 56 -115 125 l-125 125 61 0 c34 0 59 4 56 9 -3 4 22
11 56 15 34 3 67 11 72 16 6 6 18 10 28 10 10 0 18 5 18 10 0 6 11 10 25 10
14 0 25 5 25 10 0 6 9 10 21 10 11 0 17 4 14 10 -3 5 3 10 14 10 12 0 21 4 21
9 0 5 13 14 29 19 15 5 40 22 54 36 14 14 29 26 32 26 15 0 125 120 125 137 0
15 2 16 10 3 9 -13 10 -13 10 1 0 8 9 25 20 37 11 12 20 24 20 27 0 4 7 13 15
21 8 9 15 24 15 35 0 10 5 19 10 19 6 0 10 9 10 20 0 11 5 20 10 20 6 0 10 9
10 21 0 11 5 17 10 14 6 -4 10 7 10 24 0 17 5 31 10 31 6 0 10 10 10 23 0 13
5 28 11 34 7 7 14 62 17 127 2 64 9 113 13 110 5 -3 9 1209 9 2746 0 1536 -4
2749 -9 2746 -4 -3 -11 58 -13 136 -4 93 -9 143 -17 146 -6 2 -11 19 -11 37 0
19 -4 37 -10 40 -5 3 -10 17 -10 31 0 13 -4 24 -10 24 -5 0 -10 14 -10 31 0
17 -4 28 -10 24 -5 -3 -10 3 -10 14 0 12 -4 21 -10 21 -5 0 -10 9 -10 21 0 22
-29 81 -42 87 -5 2 -8 12 -8 23 0 10 -4 19 -10 19 -5 0 -10 6 -10 13 0 7 -9
19 -20 27 -11 8 -20 21 -20 30 0 8 -11 27 -25 42 -14 15 -25 30 -25 33 0 9
-176 185 -185 185 -3 0 -17 10 -30 23 -40 37 -53 47 -82 59 -15 7 -35 21 -44
30 -9 10 -23 18 -32 18 -8 0 -17 4 -19 8 -4 11 -112 62 -129 62 -8 0 -19 4
-24 8 -6 5 -30 15 -55 22 -25 8 -49 17 -55 21 -5 3 -26 9 -45 12 -19 3 -57 11
-85 17 -27 6 -86 15 -130 21 -44 5 -88 14 -97 19 -10 6 -40 10 -67 10 -28 0
-53 5 -56 10 -3 6 -30 10 -60 10 -30 0 -57 5 -60 10 -3 6 -35 10 -70 10 -35 0
-67 5 -70 10 -3 6 -35 10 -71 10 -35 0 -64 4 -64 9 0 5 -81 12 -180 16 -99 4
-183 11 -186 16 -3 5 -61 9 -129 9 -72 0 -126 4 -130 10 -4 7 -373 10 -1075
10 -702 0 -1071 -3 -1075 -10z m1595 -380 c0 -6 96 -10 268 -10 197 0 271 -3
280 -12 8 -8 83 -16 227 -22 118 -5 215 -13 215 -18 0 -4 38 -8 85 -8 50 0 85
-4 85 -10 0 -6 28 -10 64 -10 36 0 68 -4 71 -10 3 -5 32 -10 64 -10 31 0 61
-4 67 -9 5 -5 34 -12 64 -15 148 -15 250 -30 250 -38 0 -4 25 -8 55 -8 30 0
55 -4 55 -10 0 -5 15 -10 34 -10 19 0 38 -4 41 -10 3 -5 17 -10 31 -10 13 0
24 -4 24 -10 0 -5 8 -10 18 -10 11 0 32 -6 48 -14 16 -7 44 -20 62 -27 17 -8
32 -17 32 -21 0 -5 6 -8 13 -8 6 0 25 -11 41 -25 16 -14 33 -25 37 -25 9 0
169 -156 169 -165 0 -6 10 -19 38 -50 6 -7 12 -21 12 -29 0 -9 5 -16 10 -16 6
0 10 -7 10 -15 0 -8 5 -15 10 -15 6 0 10 -9 10 -21 0 -11 5 -17 10 -14 6 4 10
-5 10 -19 0 -14 4 -26 9 -26 6 0 13 -20 17 -45 3 -25 10 -45 15 -45 5 0 9 -15
9 -34 0 -19 5 -38 10 -41 6 -3 10 -43 10 -88 0 -57 3 -77 10 -67 6 10 10 -961
10 -2750 0 -1789 -4 -2760 -10 -2750 -7 11 -10 -3 -10 -47 0 -35 -4 -63 -10
-63 -5 0 -10 -13 -10 -30 0 -16 -4 -30 -9 -30 -5 0 -13 -15 -17 -32 -3 -18
-15 -40 -25 -49 -11 -9 -19 -21 -19 -27 0 -16 -118 -132 -134 -132 -7 0 -19
-7 -26 -15 -7 -8 -19 -15 -26 -15 -8 0 -14 -4 -14 -10 0 -5 -9 -10 -20 -10
-11 0 -20 -4 -20 -10 0 -5 -13 -10 -29 -10 -17 0 -33 -4 -36 -10 -3 -5 -36
-10 -73 -10 -47 0 -63 -3 -52 -10 10 -6 -897 -10 -2568 -10 -1720 0 -2581 3
-2577 10 4 6 -18 10 -59 10 -37 0 -66 4 -66 10 0 6 -11 10 -25 10 -26 0 -56
13 -87 39 -10 8 -18 10 -18 6 0 -4 -8 2 -19 13 -10 12 -20 19 -23 17 -5 -6
-118 99 -118 110 0 6 -10 19 -37 50 -7 7 -13 18 -13 24 0 6 -4 11 -10 11 -5 0
-10 14 -10 31 0 17 -4 28 -10 24 -6 -4 -10 7 -10 24 0 17 -4 31 -10 31 -7 0
-10 963 -10 2870 0 1907 3 2870 10 2870 6 0 10 21 10 48 0 34 3 43 10 32 7
-11 10 -5 10 23 0 20 5 37 10 37 6 0 10 12 10 26 0 14 4 23 10 19 6 -3 10 1
10 9 0 19 32 90 43 94 4 2 7 10 7 18 0 9 5 12 10 9 6 -3 10 3 10 14 0 12 3 21
8 21 4 0 21 21 37 45 17 25 37 48 45 50 8 3 29 23 45 45 17 21 42 44 57 50 14
6 36 22 49 36 12 13 28 24 36 24 7 0 13 5 13 10 0 6 9 10 20 10 11 0 20 5 20
10 0 6 7 10 16 10 9 0 30 7 47 16 60 32 67 34 92 34 14 0 25 5 25 10 0 6 18
10 41 10 24 0 38 4 34 10 -4 6 15 10 49 10 31 0 56 4 56 8 0 7 69 18 245 38
28 3 54 10 60 15 5 5 37 9 72 9 35 0 63 4 63 10 0 6 28 10 65 10 37 0 65 4 65
10 0 6 33 10 80 10 44 0 88 4 98 10 9 5 106 13 215 18 128 5 201 12 209 20 9
9 85 12 272 12 151 0 267 4 276 10 21 13 1050 13 1050 0z m-2152 -7478 c-47
-58 -76 -97 -79 -107 -2 -5 -13 -20 -26 -33 -13 -13 -23 -27 -23 -33 0 -5 -10
-21 -22 -34 -13 -13 -34 -40 -48 -60 -14 -20 -37 -50 -52 -67 -16 -16 -28 -36
-28 -43 0 -6 -9 -20 -20 -30 -11 -10 -20 -24 -20 -32 0 -7 -3 -13 -7 -13 -5 0
-19 -17 -33 -37 -14 -20 -30 -41 -35 -47 -6 -6 -26 -33 -45 -61 -19 -27 -39
-55 -45 -62 -29 -35 -35 -43 -35 -51 0 -5 -9 -17 -20 -27 -11 -10 -20 -22 -20
-27 0 -5 -11 -21 -25 -36 -14 -15 -25 -30 -25 -34 0 -5 -13 -22 -30 -40 -16
-17 -30 -37 -30 -44 0 -8 -4 -14 -8 -14 -4 0 -16 -15 -27 -32 -10 -18 -21 -35
-24 -38 -9 -7 -83 -110 -104 -142 l-17 -28 -360 0 c-198 0 -360 3 -360 7 0 4
23 29 51 55 28 26 48 48 45 48 -4 0 -1 6 6 14 7 8 15 12 17 10 5 -4 101 99
101 109 0 5 5 5 10 2 6 -3 10 -1 10 5 0 7 20 31 45 56 25 24 45 48 45 54 0 6
5 8 10 5 6 -3 10 1 10 10 0 9 5 13 10 10 6 -3 10 -1 10 4 0 6 91 103 203 214
229 231 307 314 307 327 0 6 8 10 17 10 9 0 14 3 10 6 -8 8 18 34 34 34 7 0
10 2 7 5 -3 3 40 52 96 109 l101 104 223 1 224 1 -24 -28z m2792 -2 c7 -16 16
-30 21 -30 5 0 9 -5 9 -11 0 -6 14 -24 30 -39 17 -15 30 -32 30 -37 0 -4 11
-20 25 -35 14 -15 25 -31 25 -35 0 -4 10 -20 23 -35 21 -25 33 -40 66 -81 13
-16 -64 -17 -1374 -17 l-1388 0 32 30 c17 17 31 35 31 40 0 6 9 21 20 33 31
34 80 99 80 107 0 4 11 19 23 34 13 15 35 45 48 66 l24 39 1131 1 1132 0 12
-30z m1003 -55 c45 -46 120 -125 167 -175 47 -51 140 -147 208 -216 67 -68
122 -126 122 -129 0 -4 42 -48 93 -98 50 -51 102 -105 115 -121 12 -16 22 -25
22 -21 0 8 38 -32 83 -85 15 -19 27 -30 27 -26 0 4 7 1 15 -8 8 -8 15 -17 15
-21 0 -3 11 -16 25 -29 14 -13 25 -26 25 -30 0 -4 34 -41 75 -82 l75 -74 -357
0 -358 0 -40 60 c-22 33 -43 60 -47 60 -5 0 -8 6 -8 13 0 7 -11 24 -25 39 -14
15 -25 32 -25 38 0 5 -3 10 -8 10 -4 0 -18 18 -32 40 -14 22 -27 40 -30 40 -3
0 -14 16 -24 35 -11 19 -23 35 -28 35 -4 0 -8 4 -8 10 0 5 -7 18 -15 27 -19
24 -77 102 -90 122 -5 8 -16 21 -23 29 -6 7 -17 23 -24 35 -11 22 -61 89 -85
115 -7 7 -20 26 -30 42 -9 17 -21 30 -25 30 -4 0 -8 5 -8 11 0 6 -6 16 -12 23
-7 8 -20 24 -28 36 -13 19 -48 67 -77 105 -5 6 -17 24 -27 40 -11 17 -26 37
-35 45 -9 8 -17 21 -19 29 -2 8 -12 22 -23 32 -10 9 -19 21 -19 26 0 5 -14 24
-31 41 l-31 32 221 0 222 0 82 -85z"/>
<path d="M12815 8758 c-11 -7 -37 -30 -58 -52 l-39 -39 4 -98 c3 -96 4 -99 37
-133 19 -20 41 -36 48 -36 7 0 13 -4 13 -10 0 -15 156 -13 182 3 32 17 72 58
88 87 8 15 13 56 13 102 0 69 -3 79 -27 103 -14 14 -26 29 -26 34 0 4 -17 17
-39 29 -30 17 -55 22 -107 22 -38 0 -78 -6 -89 -12z"/>
<path d="M13545 8751 c-32 -19 -66 -56 -84 -89 -14 -26 -15 -172 -1 -172 6 0
10 -7 10 -15 0 -17 55 -75 70 -75 6 0 10 -4 10 -10 0 -7 283 -10 830 -10 457
0 830 4 830 8 0 5 10 14 23 21 33 18 67 76 67 115 0 19 6 36 13 39 10 3 10 9
0 26 -7 11 -13 34 -13 50 0 31 -53 97 -97 120 -16 8 -242 11 -825 11 -766 0
-804 -1 -833 -19z"/>
<path d="M15756 8758 c-27 -15 -81 -71 -95 -96 -19 -36 -14 -147 10 -188 22
-40 57 -73 77 -74 7 0 11 -4 8 -9 -3 -4 33 -9 79 -10 94 -2 124 11 180 77 25
29 27 39 27 116 0 83 0 83 -38 125 -22 24 -51 49 -66 57 -32 17 -154 18 -182
2z"/>
<path d="M11715 8020 c3 -5 1 -10 -5 -10 -6 0 -17 -6 -24 -12 -8 -7 -23 -20
-35 -28 -11 -8 -21 -22 -21 -32 0 -10 -4 -18 -10 -18 -7 0 -10 -542 -10 -1605
0 -1063 3 -1605 10 -1605 6 0 10 -7 10 -16 0 -14 19 -34 74 -81 12 -10 562
-13 2675 -13 l2659 0 40 38 c48 45 62 71 62 111 0 17 5 31 10 31 7 0 10 518
10 1535 0 1017 -3 1535 -10 1535 -5 0 -10 14 -10 31 0 17 -5 40 -12 52 -18 33
-65 77 -83 77 -9 0 -13 5 -10 10 4 7 -885 10 -2660 10 -1775 0 -2664 -3 -2660
-10z m2467 -1705 l3 -1335 -1085 0 -1085 0 0 1335 0 1335 1082 0 1083 0 2
-1335z m2570 0 l3 -1335 -1095 0 c-602 0 -1089 4 -1082 8 10 7 12 278 10 1335
l-3 1327 1082 0 1083 0 2 -1335z"/>
<path d="M12200 4060 c-8 -5 -27 -10 -42 -10 -16 0 -28 -4 -28 -10 0 -5 -14
-10 -31 -10 -17 0 -28 -4 -24 -10 3 -5 0 -10 -8 -10 -20 0 -142 -65 -172 -92
-113 -101 -188 -191 -200 -241 -4 -15 -11 -27 -16 -27 -5 0 -9 -11 -9 -25 0
-14 -4 -25 -10 -25 -5 0 -10 -12 -10 -26 0 -14 -4 -23 -10 -19 -6 4 -10 -8
-10 -29 0 -19 -4 -38 -10 -41 -6 -4 -10 -70 -10 -166 0 -99 4 -159 10 -159 6
0 10 -18 10 -41 0 -24 4 -38 10 -34 6 4 10 -5 10 -19 0 -14 5 -26 10 -26 6 0
10 -11 10 -25 0 -14 4 -25 9 -25 5 0 12 -13 16 -30 4 -16 11 -30 16 -30 5 0 9
-6 9 -12 1 -19 97 -127 170 -192 36 -31 155 -96 176 -96 8 0 14 -4 14 -10 0
-5 11 -10 25 -10 14 0 25 -4 25 -9 0 -14 66 -23 215 -28 133 -4 188 2 237 28
10 5 27 9 38 9 11 0 20 5 20 10 0 6 11 10 25 10 14 0 25 5 25 10 0 6 9 10 20
10 11 0 20 4 20 9 0 5 14 14 30 20 17 5 33 17 36 26 3 8 12 15 19 15 13 0 125
106 125 119 0 4 11 21 25 37 14 16 25 35 25 42 0 6 4 12 8 12 12 0 50 76 58
115 3 19 10 35 15 35 5 0 9 15 9 34 0 19 5 36 11 38 7 2 10 60 10 168 0 108
-3 166 -10 168 -6 2 -11 19 -11 38 0 19 -4 34 -9 34 -5 0 -12 15 -15 33 -10
52 -53 132 -93 174 -13 13 -23 28 -23 33 0 14 -110 120 -124 120 -8 0 -17 7
-20 15 -3 9 -19 21 -36 26 -16 6 -30 15 -30 20 0 5 -9 9 -20 9 -11 0 -20 5
-20 10 0 6 -11 10 -25 10 -14 0 -25 5 -25 10 0 6 -11 10 -24 10 -14 0 -28 5
-31 10 -3 6 -19 10 -36 10 -16 0 -29 5 -29 10 0 13 -300 13 -320 0z m208 -400
c37 0 132 -37 132 -52 0 -4 7 -8 15 -8 27 0 125 -120 125 -154 0 -8 4 -17 9
-20 16 -10 25 -101 16 -156 -14 -83 -110 -230 -150 -230 -8 0 -15 -4 -15 -8 0
-5 -23 -19 -50 -31 -41 -19 -68 -23 -142 -22 -50 0 -94 4 -97 9 -3 5 -21 15
-38 23 -18 8 -33 17 -33 21 0 5 -7 8 -15 8 -19 0 -95 78 -95 97 0 8 -4 11 -10
8 -5 -3 -10 2 -10 12 0 10 -7 31 -15 47 -17 32 -22 211 -6 221 5 3 12 19 16
35 4 17 11 30 16 30 5 0 9 6 9 14 0 19 76 96 95 96 8 0 15 4 15 9 0 5 16 15
35 22 19 7 35 17 35 21 0 4 19 8 43 8 23 0 49 5 57 10 10 6 16 6 18 0 2 -6 20
-10 40 -10z"/>
<path d="M16235 4060 c-3 -5 -19 -10 -35 -10 -16 0 -32 -4 -35 -10 -3 -5 -15
-10 -26 -10 -10 0 -19 -4 -19 -10 0 -5 -11 -10 -25 -10 -14 0 -25 -4 -25 -10
0 -5 -9 -10 -20 -10 -11 0 -20 -4 -20 -9 0 -5 -10 -11 -23 -15 -13 -3 -38 -19
-55 -36 -18 -16 -35 -30 -38 -30 -7 0 -52 -46 -107 -109 -32 -37 -97 -156 -97
-177 0 -8 -4 -14 -8 -14 -4 0 -13 -21 -20 -47 -8 -27 -18 -56 -23 -65 -5 -10
-9 -85 -9 -168 0 -83 4 -158 9 -168 5 -9 15 -38 23 -64 7 -27 16 -48 20 -48 4
0 8 -6 8 -14 0 -20 69 -145 99 -180 52 -59 98 -106 105 -106 3 0 20 -14 38
-30 17 -17 42 -33 55 -36 13 -4 23 -10 23 -15 0 -5 9 -9 19 -9 11 0 23 -4 26
-10 3 -5 15 -10 26 -10 10 0 19 -4 19 -10 0 -5 11 -10 25 -10 14 0 25 -4 25
-10 0 -5 13 -10 29 -10 17 0 33 -4 36 -10 4 -6 68 -10 160 -10 92 0 156 4 160
10 3 6 19 10 35 10 16 0 32 5 35 10 3 6 17 10 31 10 13 0 24 5 24 10 0 6 9 10
20 10 11 0 20 5 20 10 0 6 5 10 12 10 21 0 99 42 105 56 3 8 11 14 19 14 8 0
14 5 14 10 0 6 5 10 11 10 12 0 99 90 99 102 0 4 11 18 25 32 14 14 25 32 25
41 0 8 4 15 9 15 12 0 61 102 61 128 0 12 5 22 10 22 6 0 10 16 10 35 0 19 5
35 10 35 6 0 10 32 10 75 0 43 4 75 10 75 6 0 10 9 10 20 0 11 -4 20 -10 20
-6 0 -10 32 -10 75 0 43 -4 75 -10 75 -5 0 -10 16 -10 35 0 19 -4 35 -10 35
-5 0 -10 10 -10 23 0 32 -60 148 -92 178 -10 9 -18 20 -18 25 0 14 -96 114
-109 114 -6 0 -11 5 -11 10 0 6 -6 10 -14 10 -8 0 -16 6 -19 14 -6 14 -84 56
-105 56 -7 0 -12 5 -12 10 0 6 -9 10 -21 10 -11 0 -17 5 -14 10 4 6 -6 10 -24
10 -16 0 -33 5 -36 10 -3 6 -19 10 -35 10 -16 0 -32 5 -35 10 -4 6 -68 10
-160 10 -92 0 -156 -4 -160 -10z m213 -400 c35 0 132 -37 132 -51 0 -4 10 -10
23 -13 12 -3 38 -27 57 -52 19 -25 41 -52 48 -59 6 -8 12 -25 12 -38 0 -14 5
-27 11 -29 7 -2 11 -37 11 -98 0 -61 -4 -96 -11 -98 -6 -2 -11 -14 -11 -26 0
-12 -9 -32 -20 -44 -11 -12 -20 -25 -20 -29 0 -12 -70 -83 -82 -83 -5 0 -21
-9 -35 -20 -14 -11 -34 -20 -44 -20 -9 0 -19 -5 -21 -11 -4 -13 -198 -15 -207
-2 -3 5 -28 19 -56 32 -52 25 -112 82 -136 129 -8 15 -17 29 -21 32 -16 12
-26 141 -17 207 5 37 13 70 17 73 4 3 13 17 20 31 18 35 82 109 94 109 5 0 21
9 35 20 14 11 34 20 44 20 11 0 19 5 19 10 0 6 22 10 49 10 28 0 53 5 57 12 6
9 9 9 12 0 2 -7 20 -12 40 -12z"/>
<path d="M13511 3841 c-22 -21 -41 -46 -41 -55 0 -9 -4 -16 -10 -16 -6 0 -10
-35 -10 -85 0 -50 4 -85 10 -85 6 0 10 -5 10 -10 0 -16 52 -71 82 -86 22 -12
161 -14 828 -14 582 0 807 3 823 11 12 7 39 29 60 51 27 29 37 47 37 71 0 18
6 39 12 45 10 10 10 17 0 32 -6 11 -12 31 -12 46 0 30 -47 101 -72 110 -10 3
-18 10 -18 15 0 5 -323 9 -829 9 l-829 0 -41 -39z"/>
<path d="M13545 3131 c-31 -19 -60 -51 -82 -89 -15 -26 -18 -172 -3 -172 6 0
10 -6 10 -12 0 -18 53 -78 68 -78 7 0 12 -4 12 -10 0 -7 283 -10 830 -10 507
0 830 4 830 9 0 5 8 12 18 16 29 10 72 75 72 110 0 17 6 37 12 43 10 10 10 17
0 32 -6 11 -12 33 -12 49 0 31 -53 97 -97 120 -16 8 -242 11 -825 11 -766 0
-804 -1 -833 -19z"/>
</g>
</svg>
