<?xml version="1.0" standalone="no"?>
<!DOCTYPE svg PUBLIC "-//W3C//DTD SVG 20010904//EN"
 "http://www.w3.org/TR/2001/REC-SVG-20010904/DTD/svg10.dtd">
<svg version="1.0" xmlns="http://www.w3.org/2000/svg"
 width="2000.000000pt" height="2000.000000pt" viewBox="0 0 2000.000000 2000.000000"
 preserveAspectRatio="xMidYMid meet">
<metadata>
Created by potrace 1.15, written by Peter Selinger 2001-2017
</metadata>
<g transform="translate(0.000000,2000.000000) scale(0.100000,-0.100000)"
fill="#000000" stroke="none">
<path d="M3195 15493 c-77 -2 -144 -8 -149 -13 -6 -6 -56 -10 -112 -10 -58 0
-106 -4 -109 -10 -3 -5 -44 -10 -91 -10 -46 0 -84 -4 -84 -9 0 -5 -33 -12 -72
-15 -40 -3 -109 -10 -153 -16 -44 -6 -105 -13 -135 -16 -30 -3 -59 -10 -65
-15 -5 -5 -32 -9 -60 -9 -28 0 -55 -4 -60 -9 -6 -5 -32 -12 -60 -15 -122 -14
-151 -18 -160 -27 -5 -5 -28 -9 -51 -9 -24 0 -46 -4 -49 -10 -3 -5 -21 -10
-40 -10 -19 0 -37 -4 -40 -10 -3 -5 -17 -10 -30 -10 -13 0 -27 -4 -30 -10 -3
-5 -17 -10 -30 -10 -13 0 -27 -4 -30 -10 -3 -5 -15 -10 -26 -10 -10 0 -19 -4
-19 -10 0 -5 -9 -10 -20 -10 -11 0 -20 -4 -20 -10 0 -5 -9 -10 -20 -10 -11 0
-20 -4 -20 -10 0 -5 -9 -10 -20 -10 -11 0 -20 -4 -20 -10 0 -5 -9 -10 -20 -10
-11 0 -20 -4 -20 -9 0 -5 -13 -14 -30 -21 -16 -7 -30 -16 -30 -21 0 -4 -9 -10
-19 -14 -11 -3 -33 -18 -49 -33 -17 -15 -40 -34 -52 -42 -32 -21 -160 -147
-160 -157 0 -5 -9 -15 -20 -23 -11 -8 -20 -19 -20 -25 0 -6 -9 -17 -20 -25
-11 -8 -20 -20 -20 -27 0 -7 -4 -13 -10 -13 -5 0 -10 -7 -10 -15 0 -8 -4 -15
-10 -15 -5 0 -10 -7 -10 -15 0 -8 -4 -15 -10 -15 -5 0 -10 -7 -10 -15 0 -8 -4
-15 -10 -15 -5 0 -10 -9 -10 -20 0 -11 -4 -20 -10 -20 -5 0 -10 -9 -10 -20 0
-11 -4 -20 -10 -20 -5 0 -10 -9 -10 -20 0 -11 -4 -20 -10 -20 -5 0 -10 -9 -10
-20 0 -11 -4 -20 -10 -20 -5 0 -10 -11 -10 -24 0 -13 -7 -26 -15 -30 -8 -3
-15 -12 -15 -21 0 -8 -4 -23 -9 -33 -14 -29 -31 -87 -31 -110 0 -11 -4 -24
-10 -27 -5 -3 -10 -28 -10 -55 0 -27 -4 -52 -10 -55 -13 -8 -14 -6336 -1
-6379 5 -17 15 -51 21 -76 7 -25 16 -54 20 -65 5 -11 15 -37 22 -59 7 -21 19
-41 25 -43 7 -3 13 -14 13 -24 0 -10 5 -19 10 -19 6 0 10 -8 10 -18 0 -10 9
-24 20 -32 11 -8 20 -21 20 -30 0 -9 9 -22 20 -30 11 -8 20 -20 20 -28 0 -14
156 -172 170 -172 5 0 20 -11 34 -25 14 -14 31 -25 38 -25 8 0 20 -9 28 -20 8
-11 22 -20 32 -20 10 0 18 -4 18 -10 0 -5 9 -10 20 -10 11 0 20 -4 20 -10 0
-5 9 -10 20 -10 11 0 20 -4 20 -10 0 -5 14 -10 30 -10 17 0 30 -4 30 -10 0 -5
14 -10 30 -10 17 0 30 -4 30 -10 0 -5 18 -10 40 -10 22 0 40 -4 40 -10 0 -5
35 -10 78 -12 l77 -3 -277 -277 c-153 -153 -278 -281 -278 -284 0 -3 -18 -23
-40 -44 -22 -21 -40 -41 -40 -44 0 -3 -123 -128 -273 -278 -296 -296 -441
-451 -463 -493 -19 -37 -18 -154 1 -193 9 -16 34 -46 55 -66 l40 -36 830 2
829 3 35 34 c20 19 56 64 81 100 25 36 61 86 80 111 18 25 54 74 79 110 25 36
59 83 76 105 16 22 44 61 62 88 18 26 36 47 40 47 5 0 8 5 8 10 0 6 23 40 50
75 28 35 50 67 50 70 0 2 26 38 57 80 l57 75 1811 0 1811 0 57 -75 c31 -42 57
-78 57 -80 0 -3 23 -35 50 -70 28 -35 50 -67 50 -70 0 -2 7 -13 15 -22 13 -16
96 -129 130 -178 8 -11 50 -67 92 -125 43 -58 95 -131 116 -162 22 -31 54 -71
73 -89 l35 -34 819 -3 820 -2 40 36 c21 20 46 50 55 66 19 38 20 156 2 191
-23 44 -126 156 -334 365 -112 111 -203 206 -203 210 0 4 -9 14 -20 22 -11 8
-20 18 -20 22 0 5 -95 103 -210 218 -116 115 -210 214 -210 220 0 5 -81 90
-180 190 l-180 180 70 0 c40 0 70 4 70 10 0 6 18 10 40 10 22 0 40 5 40 10 0
6 14 10 30 10 17 0 30 5 30 10 0 6 14 10 30 10 17 0 30 5 30 10 0 6 9 10 20
10 11 0 20 5 20 10 0 6 9 10 20 10 11 0 20 5 20 10 0 6 8 10 18 10 10 0 24 9
32 20 8 11 21 20 30 20 9 0 22 9 30 20 8 11 20 20 27 20 17 0 183 166 183 183
0 7 9 19 20 27 11 8 20 20 20 27 0 7 5 13 10 13 6 0 10 7 10 15 0 8 5 15 10
15 6 0 10 9 10 20 0 11 5 20 10 20 6 0 10 9 10 20 0 11 5 20 10 20 6 0 10 9
10 20 0 11 5 20 10 20 6 0 10 14 10 30 0 17 5 30 10 30 6 0 10 14 10 30 0 17
5 30 10 30 6 0 10 16 10 35 0 19 5 35 10 35 6 0 10 38 10 95 0 57 4 95 10 95
7 0 10 1008 10 3005 0 1997 -3 3005 -10 3005 -6 0 -10 43 -10 110 0 67 -4 110
-10 110 -5 0 -10 23 -10 50 0 28 -4 50 -10 50 -5 0 -10 16 -10 35 0 19 -4 35
-10 35 -5 0 -10 16 -10 35 0 19 -4 35 -10 35 -5 0 -10 11 -10 25 0 14 -4 25
-10 25 -5 0 -10 9 -10 20 0 11 -4 20 -10 20 -5 0 -10 11 -10 25 0 14 -4 25
-10 25 -5 0 -10 9 -10 20 0 11 -4 20 -10 20 -5 0 -10 9 -10 20 0 11 -4 20 -10
20 -5 0 -10 7 -10 15 0 8 -4 15 -10 15 -5 0 -10 7 -10 15 0 8 -4 15 -10 15 -5
0 -10 7 -10 15 0 8 -4 15 -10 15 -5 0 -10 7 -10 15 0 8 -4 15 -10 15 -5 0 -10
6 -10 13 0 7 -9 19 -20 27 -11 8 -20 20 -20 27 0 7 -4 13 -10 13 -5 0 -10 5
-10 11 0 12 -178 189 -190 189 -4 0 -22 13 -39 29 -18 17 -41 33 -52 36 -10 4
-19 10 -19 14 0 5 -13 14 -30 21 -16 7 -30 16 -30 21 0 5 -9 9 -20 9 -11 0
-20 5 -20 10 0 6 -9 10 -20 10 -11 0 -20 5 -20 10 0 6 -9 10 -20 10 -11 0 -20
5 -20 10 0 6 -8 10 -18 10 -10 0 -22 4 -27 9 -15 14 -189 71 -217 71 -13 0
-28 4 -33 9 -10 9 -51 16 -150 27 -27 3 -54 10 -60 15 -5 5 -28 9 -51 9 -24 0
-46 5 -49 10 -3 6 -33 10 -65 10 -32 0 -62 5 -65 10 -3 6 -32 10 -64 10 -31 0
-61 4 -66 9 -6 5 -41 12 -80 15 -181 15 -211 18 -219 27 -6 5 -47 9 -92 9 -46
0 -86 5 -89 10 -3 6 -51 10 -109 10 -68 0 -106 4 -114 13 -10 9 -289 12 -1320
13 -719 0 -1370 -1 -1447 -3z m1880 -413 c4 -6 115 -10 300 -10 185 0 296 -4
300 -10 4 -6 60 -10 136 -10 79 0 129 -4 129 -10 0 -6 41 -10 104 -10 59 0
108 -4 111 -10 3 -5 44 -10 90 -10 46 0 87 -4 90 -10 3 -5 37 -10 76 -10 39 0
69 -4 69 -10 0 -6 30 -10 70 -10 39 0 70 -4 70 -9 0 -5 28 -12 63 -15 144 -13
183 -18 191 -27 6 -5 32 -9 58 -9 26 0 48 -4 48 -10 0 -5 23 -10 50 -10 28 0
50 -4 50 -10 0 -5 20 -10 44 -10 25 0 48 -4 51 -10 3 -5 17 -10 30 -10 13 0
27 -4 30 -10 3 -5 14 -10 24 -10 20 0 144 -60 149 -72 2 -5 10 -8 18 -8 8 0
14 -4 14 -10 0 -5 6 -10 13 -10 7 0 23 -9 35 -20 12 -11 26 -20 32 -20 5 0 10
-4 10 -10 0 -5 5 -10 10 -10 15 0 160 -147 160 -163 0 -7 9 -19 20 -27 11 -8
20 -20 20 -27 0 -7 5 -13 10 -13 6 0 10 -7 10 -15 0 -8 5 -15 10 -15 6 0 10
-9 10 -20 0 -11 5 -20 10 -20 6 0 10 -9 10 -20 0 -11 5 -20 10 -20 6 0 10 -9
10 -20 0 -11 5 -20 10 -20 6 0 10 -11 10 -25 0 -14 5 -25 10 -25 6 0 10 -16
10 -35 0 -19 5 -35 10 -35 6 0 10 -18 10 -40 0 -22 5 -40 10 -40 6 0 10 -33
10 -80 0 -47 4 -80 10 -80 7 0 10 -1005 10 -2995 0 -1990 -3 -2995 -10 -2995
-6 0 -10 -27 -10 -60 0 -33 -4 -60 -10 -60 -5 0 -10 -13 -10 -30 0 -16 -4 -30
-10 -30 -5 0 -10 -11 -10 -25 0 -14 -4 -25 -10 -25 -5 0 -10 -9 -10 -20 0 -11
-4 -20 -10 -20 -5 0 -10 -7 -10 -15 0 -8 -4 -15 -10 -15 -5 0 -10 -5 -10 -10
0 -16 -136 -147 -160 -155 -11 -3 -20 -11 -20 -16 0 -5 -9 -9 -19 -9 -11 0
-21 -3 -23 -8 -7 -15 -138 -52 -186 -52 -32 0 -56 -6 -66 -15 -13 -13 -339
-15 -2811 -15 -2472 0 -2798 2 -2811 15 -10 9 -34 15 -66 15 -51 0 -173 35
-196 57 -6 6 -21 15 -32 18 -11 3 -20 10 -20 15 0 5 -9 12 -20 15 -24 8 -120
99 -120 114 0 6 -4 11 -10 11 -5 0 -10 7 -10 15 0 8 -4 15 -10 15 -5 0 -10 7
-10 15 0 8 -3 15 -7 15 -9 0 -33 49 -33 67 0 7 -4 13 -10 13 -5 0 -10 14 -10
30 0 17 -4 30 -10 30 -7 0 -10 1052 -10 3135 0 2083 3 3135 10 3135 6 0 10 18
10 40 0 22 5 40 10 40 6 0 10 13 10 29 0 17 5 33 10 36 6 3 10 17 10 31 0 13
5 24 10 24 6 0 10 9 10 20 0 11 5 20 10 20 6 0 10 9 10 20 0 11 5 20 10 20 6
0 10 8 10 18 0 10 9 24 20 32 11 8 20 21 20 30 0 9 9 22 20 30 11 8 20 20 20
28 0 14 156 172 170 172 5 0 20 11 34 25 14 14 31 25 38 25 8 0 20 9 28 20 8
11 20 20 26 20 7 0 38 14 69 30 31 17 65 30 75 30 11 0 22 5 25 10 3 6 17 10
30 10 13 0 27 5 30 10 3 6 21 10 40 10 19 0 37 5 40 10 3 6 31 10 61 10 30 0
54 5 54 10 0 6 22 10 49 10 28 0 53 5 56 10 3 6 31 10 61 10 30 0 54 5 54 10
0 6 26 10 59 10 33 0 63 5 66 10 3 6 35 10 70 10 35 0 67 5 70 10 3 6 35 10
70 10 35 0 67 5 70 10 3 6 46 10 95 10 49 0 92 5 95 10 3 6 50 10 106 10 59 0
99 4 99 10 0 6 50 10 129 10 76 0 132 4 136 10 4 6 111 10 288 10 165 0 288 4
297 10 21 13 1147 13 1155 0z m-2335 -8140 c0 -6 -13 -24 -30 -42 -16 -17 -30
-35 -30 -40 0 -5 -11 -20 -25 -34 -14 -14 -25 -29 -25 -33 0 -4 -11 -21 -25
-37 -14 -16 -25 -33 -25 -37 0 -4 -11 -19 -25 -33 -14 -14 -25 -29 -25 -34 0
-5 -11 -20 -25 -34 -14 -14 -25 -29 -25 -34 0 -5 -13 -23 -30 -40 -16 -18 -30
-36 -30 -42 0 -6 -13 -24 -30 -42 -16 -17 -30 -36 -30 -42 0 -6 -9 -18 -20
-26 -11 -8 -20 -19 -20 -25 0 -5 -14 -26 -30 -45 -16 -19 -30 -40 -30 -45 0
-6 -9 -17 -20 -25 -11 -8 -20 -20 -20 -26 0 -6 -13 -25 -30 -42 -16 -18 -30
-36 -30 -42 0 -6 -13 -24 -30 -42 -16 -17 -30 -36 -30 -42 0 -6 -9 -18 -20
-26 -11 -8 -20 -19 -20 -25 0 -5 -14 -26 -30 -45 -16 -19 -30 -38 -30 -43 0
-4 -13 -21 -30 -39 -16 -17 -30 -36 -30 -42 0 -6 -9 -18 -20 -26 -11 -8 -20
-19 -20 -25 0 -5 -14 -26 -30 -45 -16 -19 -30 -38 -30 -42 0 -5 -10 -19 -22
-33 l-22 -25 -393 0 c-216 0 -393 2 -393 5 0 3 59 64 130 136 72 71 130 132
130 135 0 3 36 40 80 84 44 44 80 82 80 85 0 3 96 101 213 218 116 117 258
262 314 322 56 61 149 158 205 217 l103 107 238 0 c153 1 237 -3 237 -9z
m3020 0 c0 -5 11 -20 25 -34 14 -14 25 -30 25 -37 0 -6 14 -24 30 -39 17 -15
30 -33 30 -39 0 -7 11 -23 25 -37 14 -14 25 -29 25 -34 0 -5 11 -20 25 -34 14
-14 25 -29 25 -34 0 -5 14 -23 30 -40 17 -18 30 -36 30 -42 0 -7 -499 -10
-1505 -10 l-1506 0 12 22 c6 12 20 31 30 42 11 11 19 24 19 28 0 5 11 20 25
34 14 14 25 29 25 34 0 5 11 20 25 34 14 14 25 30 25 36 0 5 14 24 30 42 17
17 30 35 30 40 0 5 11 20 25 34 14 14 25 29 25 34 0 6 458 10 1235 10 777 0
1235 -4 1235 -10z m1088 -60 c37 -38 114 -120 172 -181 58 -62 160 -169 226
-238 67 -69 152 -160 190 -201 38 -41 140 -145 227 -232 86 -86 157 -159 157
-162 0 -3 45 -51 100 -107 55 -57 100 -107 100 -111 0 -4 -171 -8 -380 -8
l-381 0 -24 25 c-14 13 -25 28 -25 32 0 4 -14 24 -30 43 -16 19 -30 40 -30 45
0 6 -9 17 -20 25 -11 8 -20 20 -20 26 0 6 -13 25 -30 42 -16 18 -30 35 -30 39
0 5 -14 24 -30 43 -16 19 -30 40 -30 45 0 6 -9 17 -20 25 -11 8 -20 20 -20 26
0 6 -13 25 -30 42 -16 18 -30 36 -30 42 0 6 -13 24 -30 42 -16 17 -30 36 -30
42 0 6 -9 18 -20 26 -11 8 -20 19 -20 25 0 5 -14 26 -30 45 -16 19 -30 39 -30
43 0 4 -11 19 -25 33 -14 14 -25 29 -25 34 0 5 -11 20 -25 34 -14 14 -25 29
-25 33 0 4 -11 21 -25 37 -14 16 -25 33 -25 37 0 4 -11 19 -25 33 -14 14 -25
29 -25 34 0 5 -13 23 -30 40 -16 18 -30 37 -30 42 0 6 -11 22 -25 36 -14 14
-25 29 -25 34 0 5 -11 20 -25 34 -14 14 -25 29 -25 33 0 4 -14 24 -30 43 -16
19 -30 38 -30 43 0 4 106 7 235 7 l236 0 67 -70z"/>
<path d="M2793 14684 c-66 -39 -93 -94 -93 -188 0 -42 6 -86 13 -98 17 -32 73
-88 86 -88 6 0 11 -4 11 -10 0 -6 40 -10 100 -10 60 0 100 4 100 10 0 6 7 10
15 10 8 0 15 5 15 10 0 6 7 10 15 10 8 0 15 4 15 8 0 5 11 22 25 38 26 30 31
62 26 163 -2 36 -9 61 -22 74 -10 12 -19 25 -19 29 0 5 -21 22 -47 38 -41 27
-56 30 -122 30 -63 0 -83 -4 -118 -26z"/>
<path d="M3593 14684 c-22 -15 -52 -45 -67 -67 -22 -35 -26 -52 -26 -119 0
-44 5 -88 13 -100 17 -32 73 -88 86 -88 6 0 11 -4 11 -10 0 -7 308 -10 905
-10 597 0 905 3 905 10 0 6 7 10 15 10 8 0 15 5 15 10 0 6 6 10 14 10 8 0 18
9 21 20 3 11 10 20 14 20 18 0 34 66 34 135 -1 65 -4 79 -29 114 -16 22 -47
51 -69 65 l-39 26 -881 0 -881 0 -41 -26z"/>
<path d="M6003 14684 c-66 -39 -93 -94 -93 -188 0 -42 6 -86 13 -98 17 -32 73
-88 86 -88 6 0 11 -4 11 -10 0 -6 40 -10 100 -10 60 0 100 4 100 10 0 6 7 10
15 10 8 0 15 5 15 10 0 6 7 10 15 10 8 0 15 4 15 8 0 5 11 22 25 38 26 30 31
62 26 163 -2 36 -9 61 -22 74 -10 12 -19 25 -19 29 0 5 -21 22 -47 38 -41 27
-56 30 -122 30 -63 0 -83 -4 -118 -26z"/>
<path d="M1590 13880 c-8 -11 -20 -20 -27 -20 -7 0 -13 -4 -13 -10 0 -5 -11
-20 -25 -34 l-25 -25 0 -1758 0 -1758 25 -29 c14 -16 25 -33 25 -38 0 -4 6 -8
13 -8 7 0 19 -9 27 -20 14 -20 26 -20 2924 -20 2800 0 2909 1 2925 18 9 10 24
21 34 25 9 3 17 12 17 19 0 8 9 20 20 28 14 10 20 26 20 52 0 21 5 38 10 38 7
0 10 570 10 1690 0 1120 -3 1690 -10 1690 -5 0 -10 17 -10 38 0 26 -6 42 -20
52 -11 8 -20 20 -20 28 0 7 -8 16 -17 19 -10 4 -25 15 -34 25 -16 17 -125 18
-2925 18 -2898 0 -2910 0 -2924 -20z m2720 -1850 l0 -1460 -1190 0 -1190 0 0
1460 0 1460 1190 0 1190 0 0 -1460z m2800 0 l0 -1460 -1185 0 -1185 0 0 1460
0 1460 1185 0 1185 0 0 -1460z"/>
<path d="M2120 9560 c0 -5 -15 -10 -34 -10 -19 0 -38 -4 -41 -10 -3 -5 -15
-10 -26 -10 -10 0 -19 -4 -19 -10 0 -5 -9 -10 -19 -10 -23 0 -101 -40 -101
-52 0 -4 -7 -8 -16 -8 -9 0 -24 -8 -33 -18 -9 -10 -32 -29 -51 -42 -44 -31
-69 -56 -100 -100 -13 -19 -32 -42 -42 -51 -10 -9 -18 -22 -18 -28 0 -7 -9
-21 -20 -33 -11 -12 -20 -30 -20 -40 0 -10 -4 -18 -10 -18 -5 0 -10 -11 -10
-25 0 -14 -4 -25 -10 -25 -5 0 -10 -11 -10 -25 0 -14 -4 -25 -10 -25 -5 0 -10
-15 -10 -34 0 -19 -4 -38 -10 -41 -6 -4 -10 -77 -10 -185 0 -108 4 -181 10
-185 6 -3 10 -22 10 -41 0 -19 5 -34 10 -34 6 0 10 -11 10 -25 0 -14 5 -25 10
-25 6 0 10 -11 10 -25 0 -14 5 -25 10 -25 6 0 10 -9 10 -20 0 -11 5 -20 10
-20 6 0 10 -7 10 -15 0 -8 5 -15 10 -15 6 0 10 -7 10 -16 0 -9 8 -24 18 -33
10 -9 29 -32 42 -51 31 -44 56 -69 100 -100 19 -13 42 -32 51 -42 9 -10 24
-18 33 -18 9 0 16 -4 16 -8 0 -12 78 -52 101 -52 10 0 19 -4 19 -10 0 -5 9
-10 19 -10 11 0 23 -4 26 -10 3 -5 22 -10 41 -10 19 0 34 -4 34 -10 0 -6 68
-10 184 -10 113 0 187 4 191 10 3 6 19 10 36 10 16 0 37 4 47 9 9 5 28 13 42
19 57 22 120 56 120 64 0 4 8 8 18 8 10 0 24 9 32 20 8 11 20 20 26 20 12 0
134 117 134 129 0 5 11 21 25 37 14 16 25 35 25 42 0 6 4 12 8 12 8 0 42 63
64 120 6 14 14 33 19 42 5 10 9 30 9 46 0 15 5 33 11 39 6 6 10 74 10 183 0
109 -4 177 -10 183 -6 6 -11 26 -11 43 0 18 -4 36 -10 39 -5 3 -10 13 -10 21
0 22 -60 144 -71 144 -5 0 -9 8 -9 18 0 10 -9 24 -20 32 -11 8 -20 20 -20 26
0 15 -129 144 -144 144 -6 0 -18 9 -26 20 -8 11 -22 20 -32 20 -10 0 -18 4
-18 8 0 10 -77 52 -96 52 -8 0 -14 5 -14 10 0 6 -11 10 -24 10 -14 0 -28 5
-31 10 -3 6 -21 10 -40 10 -19 0 -37 5 -40 10 -4 6 -78 10 -191 10 -116 0
-184 -4 -184 -10z m305 -441 c11 -5 31 -13 45 -19 38 -15 60 -31 104 -76 44
-43 57 -63 98 -146 4 -10 8 -31 8 -48 0 -17 6 -39 12 -50 10 -16 10 -24 0 -40
-6 -11 -12 -33 -12 -50 0 -17 -4 -39 -10 -50 -5 -11 -14 -29 -20 -40 -40 -79
-96 -136 -180 -179 -61 -31 -72 -33 -163 -33 -59 0 -103 4 -110 11 -6 6 -19
11 -29 11 -10 0 -18 3 -18 8 0 4 -19 16 -41 27 -50 24 -98 78 -138 157 -28 55
-31 68 -31 159 0 94 2 102 36 166 19 38 45 79 57 91 29 32 120 92 139 92 7 0
18 4 24 9 19 20 186 20 229 0z"/>
<path d="M6535 9560 c-3 -5 -22 -10 -41 -10 -19 0 -34 -4 -34 -10 0 -5 -11
-10 -25 -10 -14 0 -25 -4 -25 -10 0 -5 -11 -10 -25 -10 -14 0 -25 -4 -25 -10
0 -5 -9 -10 -20 -10 -11 0 -20 -4 -20 -10 0 -5 -7 -10 -15 -10 -8 0 -15 -4
-15 -10 0 -5 -6 -10 -12 -10 -38 -1 -247 -210 -248 -247 0 -7 -4 -13 -8 -13
-7 0 -26 -37 -64 -130 -6 -14 -14 -33 -19 -42 -5 -10 -9 -29 -9 -42 0 -14 -4
-28 -10 -31 -6 -4 -10 -77 -10 -185 0 -108 4 -181 10 -185 6 -3 10 -17 10 -31
0 -13 4 -32 9 -42 5 -9 13 -28 18 -42 23 -59 80 -164 110 -201 54 -69 187
-188 211 -189 6 0 12 -4 12 -10 0 -5 7 -10 15 -10 8 0 15 -4 15 -10 0 -5 9
-10 20 -10 11 0 20 -4 20 -10 0 -5 11 -10 25 -10 14 0 25 -4 25 -10 0 -5 11
-10 25 -10 14 0 25 -4 25 -10 0 -5 15 -10 34 -10 19 0 38 -4 41 -10 4 -6 78
-10 191 -10 116 0 184 4 184 10 0 6 14 10 30 10 17 0 38 4 48 9 9 5 28 13 42
19 57 22 120 56 120 64 0 4 8 8 18 8 10 0 24 9 32 20 8 11 20 20 27 20 16 0
143 127 143 143 0 7 9 19 20 27 11 8 20 22 20 32 0 10 4 18 8 18 10 0 52 77
52 96 0 8 5 14 10 14 6 0 10 11 10 24 0 14 5 28 10 31 6 3 10 21 10 40 0 19 5
37 10 40 6 3 10 42 10 86 0 46 4 79 10 79 6 0 10 9 10 20 0 11 -4 20 -10 20
-6 0 -10 33 -10 79 0 44 -4 83 -10 86 -5 3 -10 21 -10 40 0 19 -4 37 -10 40
-5 3 -10 14 -10 24 0 23 -60 141 -72 141 -4 0 -8 8 -8 18 0 10 -9 24 -20 32
-11 8 -20 20 -20 27 0 16 -127 143 -143 143 -7 0 -19 9 -27 20 -8 11 -22 20
-32 20 -10 0 -18 4 -18 8 0 12 -118 72 -141 72 -10 0 -21 5 -24 10 -3 6 -22
10 -41 10 -19 0 -34 5 -34 10 0 6 -68 10 -184 10 -113 0 -187 -4 -191 -10z
m300 -440 c11 -4 35 -13 53 -20 17 -7 32 -16 32 -21 0 -5 6 -9 14 -9 18 0 97
-87 117 -130 69 -146 68 -221 -4 -365 -34 -68 -90 -120 -167 -156 -14 -6 -34
-16 -44 -21 -10 -6 -61 -10 -113 -10 -87 -1 -99 2 -160 33 -82 42 -139 98
-180 179 -31 58 -33 70 -33 160 0 89 3 102 32 158 17 34 45 76 62 95 41 43
116 97 136 97 9 0 20 4 26 9 19 19 184 20 229 1z"/>
<path d="M3610 9360 c0 -5 -5 -10 -11 -10 -13 0 -69 -56 -86 -88 -8 -12 -13
-56 -13 -99 0 -93 22 -139 90 -184 l43 -29 894 0 c491 0 893 4 893 8 0 4 13
15 28 24 16 10 41 35 56 57 24 34 28 51 29 113 1 69 -16 138 -34 138 -4 0 -11
9 -14 20 -3 11 -13 20 -21 20 -8 0 -14 5 -14 10 0 6 -7 10 -15 10 -8 0 -15 5
-15 10 0 7 -308 10 -905 10 -597 0 -905 -3 -905 -10z"/>
<path d="M3593 8544 c-65 -38 -93 -94 -93 -185 0 -57 5 -82 21 -109 24 -40 63
-80 79 -80 5 0 10 -4 10 -10 0 -7 308 -10 905 -10 597 0 905 3 905 10 0 6 7
10 15 10 8 0 15 5 15 10 0 6 6 10 13 10 6 1 25 21 41 46 25 40 29 55 29 125 0
70 -3 84 -28 119 -16 23 -41 48 -57 58 -15 9 -28 20 -28 24 0 4 -402 8 -892 8
l-893 0 -42 -26z"/>
<path d="M12825 15483 c-77 -2 -144 -8 -149 -13 -6 -6 -56 -10 -112 -10 -58 0
-106 -4 -109 -10 -3 -5 -44 -10 -91 -10 -46 0 -84 -4 -84 -9 0 -5 -33 -12 -72
-15 -40 -3 -109 -10 -153 -16 -44 -6 -105 -13 -135 -16 -30 -3 -59 -10 -65
-15 -5 -5 -32 -9 -60 -9 -28 0 -55 -4 -60 -9 -6 -5 -32 -12 -60 -15 -122 -14
-151 -18 -160 -27 -5 -5 -28 -9 -51 -9 -24 0 -46 -4 -49 -10 -3 -5 -21 -10
-40 -10 -19 0 -37 -4 -40 -10 -3 -5 -17 -10 -30 -10 -13 0 -27 -4 -30 -10 -3
-5 -17 -10 -30 -10 -13 0 -27 -4 -30 -10 -3 -5 -15 -10 -26 -10 -10 0 -19 -4
-19 -10 0 -5 -9 -10 -20 -10 -11 0 -20 -4 -20 -10 0 -5 -9 -10 -20 -10 -11 0
-20 -4 -20 -10 0 -5 -9 -10 -20 -10 -11 0 -20 -4 -20 -10 0 -5 -9 -10 -20 -10
-11 0 -20 -4 -20 -9 0 -5 -13 -14 -30 -21 -16 -7 -30 -16 -30 -21 0 -4 -9 -10
-19 -14 -11 -3 -33 -18 -49 -33 -17 -15 -40 -34 -52 -42 -32 -21 -160 -147
-160 -157 0 -5 -9 -15 -20 -23 -11 -8 -20 -19 -20 -25 0 -6 -9 -17 -20 -25
-11 -8 -20 -20 -20 -27 0 -7 -4 -13 -10 -13 -5 0 -10 -7 -10 -15 0 -8 -4 -15
-10 -15 -5 0 -10 -7 -10 -15 0 -8 -4 -15 -10 -15 -5 0 -10 -7 -10 -15 0 -8 -4
-15 -10 -15 -5 0 -10 -9 -10 -20 0 -11 -4 -20 -10 -20 -5 0 -10 -9 -10 -20 0
-11 -4 -20 -10 -20 -5 0 -10 -9 -10 -20 0 -11 -4 -20 -10 -20 -5 0 -10 -9 -10
-20 0 -11 -4 -20 -10 -20 -5 0 -10 -11 -10 -24 0 -13 -7 -26 -15 -30 -8 -3
-15 -12 -15 -21 0 -8 -4 -23 -9 -33 -14 -29 -31 -87 -31 -110 0 -11 -4 -24
-10 -27 -5 -3 -10 -28 -10 -55 0 -27 -4 -52 -10 -55 -13 -8 -14 -6336 -1
-6379 5 -17 15 -51 21 -76 7 -25 16 -54 20 -65 5 -11 15 -37 22 -59 7 -21 19
-41 25 -43 7 -3 13 -14 13 -24 0 -10 5 -19 10 -19 6 0 10 -8 10 -18 0 -10 9
-24 20 -32 11 -8 20 -21 20 -30 0 -9 9 -22 20 -30 11 -8 20 -20 20 -28 0 -14
156 -172 170 -172 5 0 20 -11 34 -25 14 -14 31 -25 38 -25 8 0 20 -9 28 -20 8
-11 22 -20 32 -20 10 0 18 -4 18 -10 0 -5 9 -10 20 -10 11 0 20 -4 20 -10 0
-5 9 -10 20 -10 11 0 20 -4 20 -10 0 -5 14 -10 30 -10 17 0 30 -4 30 -10 0 -5
14 -10 30 -10 17 0 30 -4 30 -10 0 -5 18 -10 40 -10 22 0 40 -4 40 -10 0 -5
35 -10 78 -12 l77 -3 -277 -277 c-153 -153 -278 -281 -278 -284 0 -3 -18 -23
-40 -44 -22 -21 -40 -41 -40 -44 0 -3 -123 -128 -273 -278 -296 -296 -441
-451 -463 -493 -19 -37 -18 -154 1 -193 9 -16 34 -46 55 -66 l40 -36 830 2
829 3 35 34 c20 19 56 64 81 100 25 36 61 86 80 111 18 25 54 74 79 110 25 36
59 83 76 105 16 22 44 61 62 88 18 26 36 47 40 47 5 0 8 5 8 10 0 6 23 40 50
75 28 35 50 67 50 70 0 2 26 38 57 80 l57 75 1811 0 1811 0 57 -75 c31 -42 57
-78 57 -80 0 -3 23 -35 50 -70 28 -35 50 -67 50 -70 0 -2 7 -13 15 -22 13 -16
96 -129 130 -178 8 -11 50 -67 92 -125 43 -58 95 -131 116 -162 22 -31 54 -71
73 -89 l35 -34 819 -3 820 -2 40 36 c21 20 46 50 55 66 19 38 20 156 2 191
-23 44 -126 156 -334 365 -112 111 -203 206 -203 210 0 4 -9 14 -20 22 -11 8
-20 18 -20 22 0 5 -95 103 -210 218 -115 115 -210 214 -210 220 0 5 -81 90
-180 190 l-180 180 70 0 c40 0 70 4 70 10 0 6 18 10 40 10 22 0 40 5 40 10 0
6 14 10 30 10 17 0 30 5 30 10 0 6 14 10 30 10 17 0 30 5 30 10 0 6 9 10 20
10 11 0 20 5 20 10 0 6 9 10 20 10 11 0 20 5 20 10 0 6 8 10 18 10 10 0 24 9
32 20 8 11 21 20 30 20 9 0 22 9 30 20 8 11 20 20 27 20 7 0 51 38 98 85 47
47 85 91 85 98 0 7 9 19 20 27 11 8 20 20 20 27 0 7 5 13 10 13 6 0 10 7 10
15 0 8 5 15 10 15 6 0 10 9 10 20 0 11 5 20 10 20 6 0 10 9 10 20 0 11 5 20
10 20 6 0 10 9 10 20 0 11 5 20 10 20 6 0 10 14 10 30 0 17 5 30 10 30 6 0 10
14 10 30 0 17 5 30 10 30 6 0 10 16 10 35 0 19 5 35 10 35 6 0 10 38 10 95 0
57 4 95 10 95 7 0 10 1008 10 3005 0 1997 -3 3005 -10 3005 -6 0 -10 43 -10
110 0 67 -4 110 -10 110 -5 0 -10 23 -10 50 0 28 -4 50 -10 50 -5 0 -10 16
-10 35 0 19 -4 35 -10 35 -5 0 -10 16 -10 35 0 19 -4 35 -10 35 -5 0 -10 11
-10 25 0 14 -4 25 -10 25 -5 0 -10 9 -10 20 0 11 -4 20 -10 20 -5 0 -10 11
-10 25 0 14 -4 25 -10 25 -5 0 -10 9 -10 20 0 11 -4 20 -10 20 -5 0 -10 9 -10
20 0 11 -4 20 -10 20 -5 0 -10 7 -10 15 0 8 -4 15 -10 15 -5 0 -10 7 -10 15 0
8 -4 15 -10 15 -5 0 -10 7 -10 15 0 8 -4 15 -10 15 -5 0 -10 7 -10 15 0 8 -4
15 -10 15 -5 0 -10 6 -10 13 0 7 -9 19 -20 27 -11 8 -20 20 -20 27 0 7 -4 13
-10 13 -5 0 -10 5 -10 11 0 12 -178 189 -190 189 -4 0 -22 13 -39 29 -18 17
-41 33 -52 36 -10 4 -19 10 -19 14 0 5 -13 14 -30 21 -16 7 -30 16 -30 21 0 5
-9 9 -20 9 -11 0 -20 5 -20 10 0 6 -9 10 -20 10 -11 0 -20 5 -20 10 0 6 -9 10
-20 10 -11 0 -20 5 -20 10 0 6 -8 10 -18 10 -10 0 -22 4 -27 9 -15 14 -189 71
-217 71 -13 0 -28 4 -33 9 -10 9 -51 16 -150 27 -27 3 -54 10 -60 15 -5 5 -28
9 -51 9 -24 0 -46 5 -49 10 -3 6 -33 10 -65 10 -32 0 -62 5 -65 10 -3 6 -32
10 -64 10 -31 0 -61 4 -66 9 -6 5 -41 12 -80 15 -181 15 -211 18 -219 27 -6 5
-47 9 -92 9 -46 0 -86 5 -89 10 -3 6 -51 10 -109 10 -68 0 -106 4 -114 13 -10
9 -289 12 -1320 13 -719 0 -1370 -1 -1447 -3z m1880 -413 c4 -6 115 -10 300
-10 185 0 296 -4 300 -10 4 -6 60 -10 136 -10 79 0 129 -4 129 -10 0 -6 41
-10 104 -10 59 0 108 -4 111 -10 3 -5 44 -10 90 -10 46 0 87 -4 90 -10 3 -5
37 -10 76 -10 39 0 69 -4 69 -10 0 -6 30 -10 70 -10 39 0 70 -4 70 -9 0 -5 28
-12 63 -15 144 -13 183 -18 191 -27 6 -5 32 -9 58 -9 26 0 48 -4 48 -10 0 -5
23 -10 50 -10 28 0 50 -4 50 -10 0 -5 20 -10 44 -10 25 0 48 -4 51 -10 3 -5
17 -10 30 -10 13 0 27 -4 30 -10 3 -5 14 -10 24 -10 20 0 144 -60 149 -72 2
-5 10 -8 18 -8 8 0 14 -4 14 -10 0 -5 6 -10 13 -10 7 0 23 -9 35 -20 12 -11
26 -20 32 -20 5 0 10 -4 10 -10 0 -5 5 -10 10 -10 15 0 160 -147 160 -163 0
-7 9 -19 20 -27 11 -8 20 -20 20 -27 0 -7 5 -13 10 -13 6 0 10 -7 10 -15 0 -8
5 -15 10 -15 6 0 10 -9 10 -20 0 -11 5 -20 10 -20 6 0 10 -9 10 -20 0 -11 5
-20 10 -20 6 0 10 -9 10 -20 0 -11 5 -20 10 -20 6 0 10 -11 10 -25 0 -14 5
-25 10 -25 6 0 10 -16 10 -35 0 -19 5 -35 10 -35 6 0 10 -18 10 -40 0 -22 5
-40 10 -40 6 0 10 -33 10 -80 0 -47 4 -80 10 -80 7 0 10 -1005 10 -2995 0
-1990 -3 -2995 -10 -2995 -6 0 -10 -27 -10 -60 0 -33 -4 -60 -10 -60 -5 0 -10
-13 -10 -30 0 -16 -4 -30 -10 -30 -5 0 -10 -11 -10 -25 0 -14 -4 -25 -10 -25
-5 0 -10 -9 -10 -20 0 -11 -4 -20 -10 -20 -5 0 -10 -7 -10 -15 0 -8 -4 -15
-10 -15 -5 0 -10 -5 -10 -10 0 -16 -136 -147 -160 -155 -11 -3 -20 -11 -20
-16 0 -5 -9 -9 -19 -9 -11 0 -21 -3 -23 -8 -7 -15 -138 -52 -186 -52 -32 0
-56 -6 -66 -15 -13 -13 -339 -15 -2811 -15 -2472 0 -2798 2 -2811 15 -10 9
-34 15 -66 15 -51 0 -173 35 -196 57 -6 6 -21 15 -32 18 -11 3 -20 10 -20 15
0 5 -9 12 -20 15 -24 8 -120 99 -120 114 0 6 -4 11 -10 11 -5 0 -10 7 -10 15
0 8 -4 15 -10 15 -5 0 -10 7 -10 15 0 8 -3 15 -7 15 -9 0 -33 49 -33 67 0 7
-4 13 -10 13 -5 0 -10 14 -10 30 0 17 -4 30 -10 30 -7 0 -10 1052 -10 3135 0
2083 3 3135 10 3135 6 0 10 18 10 40 0 22 5 40 10 40 6 0 10 13 10 29 0 17 5
33 10 36 6 3 10 17 10 31 0 13 5 24 10 24 6 0 10 9 10 20 0 11 5 20 10 20 6 0
10 9 10 20 0 11 5 20 10 20 6 0 10 8 10 18 0 10 9 24 20 32 11 8 20 21 20 30
0 9 9 22 20 30 11 8 20 20 20 28 0 14 156 172 170 172 5 0 20 11 34 25 14 14
31 25 38 25 8 0 20 9 28 20 8 11 20 20 26 20 7 0 38 14 69 30 31 17 65 30 75
30 11 0 22 5 25 10 3 6 17 10 30 10 13 0 27 5 30 10 3 6 21 10 40 10 19 0 37
5 40 10 3 6 31 10 61 10 30 0 54 5 54 10 0 6 22 10 49 10 28 0 53 5 56 10 3 6
31 10 61 10 30 0 54 5 54 10 0 6 26 10 59 10 33 0 63 5 66 10 3 6 35 10 70 10
35 0 67 5 70 10 3 6 35 10 70 10 35 0 67 5 70 10 3 6 46 10 95 10 49 0 92 5
95 10 3 6 50 10 106 10 59 0 99 4 99 10 0 6 50 10 129 10 76 0 132 4 136 10 4
6 111 10 288 10 165 0 288 4 297 10 21 13 1147 13 1155 0z m-2335 -8140 c0 -6
-13 -24 -30 -42 -16 -17 -30 -35 -30 -40 0 -5 -11 -20 -25 -34 -14 -14 -25
-29 -25 -33 0 -4 -11 -21 -25 -37 -14 -16 -25 -33 -25 -37 0 -4 -11 -19 -25
-33 -14 -14 -25 -29 -25 -34 0 -5 -11 -20 -25 -34 -14 -14 -25 -29 -25 -34 0
-5 -13 -23 -30 -40 -16 -18 -30 -36 -30 -42 0 -6 -13 -24 -30 -42 -16 -17 -30
-36 -30 -42 0 -6 -9 -18 -20 -26 -11 -8 -20 -19 -20 -25 0 -5 -14 -26 -30 -45
-16 -19 -30 -40 -30 -45 0 -6 -9 -17 -20 -25 -11 -8 -20 -20 -20 -26 0 -6 -13
-25 -30 -42 -16 -18 -30 -36 -30 -42 0 -6 -13 -24 -30 -42 -16 -17 -30 -36
-30 -42 0 -6 -9 -18 -20 -26 -11 -8 -20 -19 -20 -25 0 -5 -14 -26 -30 -45 -16
-19 -30 -38 -30 -43 0 -4 -13 -21 -30 -39 -16 -17 -30 -36 -30 -42 0 -6 -9
-18 -20 -26 -11 -8 -20 -19 -20 -25 0 -5 -14 -26 -30 -45 -16 -19 -30 -38 -30
-42 0 -5 -10 -19 -22 -33 l-22 -25 -393 0 c-216 0 -393 2 -393 5 0 3 59 64
130 136 72 71 130 132 130 135 0 3 36 40 80 84 44 44 80 82 80 85 0 3 96 101
213 218 116 117 258 262 314 322 56 61 149 158 205 217 l103 107 238 0 c153 1
237 -3 237 -9z m3020 0 c0 -5 11 -20 25 -34 14 -14 25 -30 25 -37 0 -6 14 -24
30 -39 17 -15 30 -33 30 -39 0 -7 11 -23 25 -37 14 -14 25 -29 25 -34 0 -5 11
-20 25 -34 14 -14 25 -29 25 -34 0 -5 14 -23 30 -40 17 -18 30 -36 30 -42 0
-7 -499 -10 -1505 -10 l-1506 0 12 22 c6 12 20 31 30 42 11 11 19 24 19 28 0
5 11 20 25 34 14 14 25 29 25 34 0 5 11 20 25 34 14 14 25 30 25 36 0 5 14 24
30 42 17 17 30 35 30 40 0 5 11 20 25 34 14 14 25 29 25 34 0 6 458 10 1235
10 777 0 1235 -4 1235 -10z m1088 -60 c37 -38 114 -120 172 -181 58 -62 160
-169 226 -238 67 -69 152 -160 190 -201 38 -41 140 -145 227 -232 86 -86 157
-159 157 -162 0 -3 45 -51 100 -107 55 -57 100 -107 100 -111 0 -4 -171 -8
-380 -8 l-381 0 -24 25 c-14 13 -25 28 -25 32 0 4 -14 24 -30 43 -16 19 -30
40 -30 45 0 6 -9 17 -20 25 -11 8 -20 20 -20 26 0 6 -13 25 -30 42 -16 18 -30
35 -30 39 0 5 -14 24 -30 43 -16 19 -30 40 -30 45 0 6 -9 17 -20 25 -11 8 -20
20 -20 26 0 6 -13 25 -30 42 -16 18 -30 36 -30 42 0 6 -13 24 -30 42 -16 17
-30 36 -30 42 0 6 -9 18 -20 26 -11 8 -20 19 -20 25 0 5 -14 26 -30 45 -16 19
-30 39 -30 43 0 4 -11 19 -25 33 -14 14 -25 29 -25 34 0 5 -11 20 -25 34 -14
14 -25 29 -25 33 0 4 -11 21 -25 37 -14 16 -25 33 -25 37 0 4 -11 19 -25 33
-14 14 -25 29 -25 34 0 5 -13 23 -30 40 -16 18 -30 37 -30 42 0 6 -11 22 -25
36 -14 14 -25 29 -25 34 0 5 -11 20 -25 34 -14 14 -25 29 -25 33 0 4 -14 24
-30 43 -16 19 -30 38 -30 43 0 4 106 7 235 7 l236 0 67 -70z"/>
<path d="M12423 14674 c-66 -39 -93 -94 -93 -188 0 -42 6 -86 13 -98 17 -32
73 -88 86 -88 6 0 11 -4 11 -10 0 -6 40 -10 100 -10 60 0 100 4 100 10 0 6 7
10 15 10 8 0 15 5 15 10 0 6 7 10 15 10 8 0 15 4 15 8 0 5 11 22 25 38 26 30
31 62 26 163 -2 36 -9 61 -22 74 -10 12 -19 25 -19 29 0 5 -21 22 -47 38 -41
27 -56 30 -122 30 -63 0 -83 -4 -118 -26z"/>
<path d="M13223 14674 c-22 -15 -52 -45 -67 -67 -22 -35 -26 -52 -26 -119 0
-44 5 -88 13 -100 17 -32 73 -88 86 -88 6 0 11 -4 11 -10 0 -7 308 -10 905
-10 597 0 905 3 905 10 0 6 7 10 15 10 8 0 15 5 15 10 0 6 6 10 14 10 8 0 18
9 21 20 3 11 10 20 14 20 18 0 34 66 34 135 -1 65 -4 79 -29 114 -16 22 -47
51 -69 65 l-39 26 -881 0 -881 0 -41 -26z"/>
<path d="M15633 14674 c-66 -39 -93 -94 -93 -188 0 -42 6 -86 13 -98 17 -32
73 -88 86 -88 6 0 11 -4 11 -10 0 -6 40 -10 100 -10 60 0 100 4 100 10 0 6 7
10 15 10 8 0 15 5 15 10 0 6 7 10 15 10 8 0 15 4 15 8 0 5 11 22 25 38 26 30
31 62 26 163 -2 36 -9 61 -22 74 -10 12 -19 25 -19 29 0 5 -21 22 -47 38 -41
27 -56 30 -122 30 -63 0 -83 -4 -118 -26z"/>
<path d="M11220 13870 c-8 -11 -20 -20 -27 -20 -7 0 -13 -4 -13 -10 0 -5 -11
-20 -25 -34 l-25 -25 0 -1758 0 -1758 25 -29 c14 -16 25 -33 25 -38 0 -4 6 -8
13 -8 7 0 19 -9 27 -20 14 -20 26 -20 2924 -20 2800 0 2909 1 2925 18 9 10 24
21 34 25 9 3 17 12 17 19 0 8 9 20 20 28 14 10 20 26 20 52 0 21 5 38 10 38 7
0 10 570 10 1690 0 1120 -3 1690 -10 1690 -5 0 -10 17 -10 38 0 26 -6 42 -20
52 -11 8 -20 20 -20 28 0 7 -8 16 -17 19 -10 4 -25 15 -34 25 -16 17 -125 18
-2925 18 -2898 0 -2910 0 -2924 -20z m2720 -1850 l0 -1460 -1190 0 -1190 0 0
1460 0 1460 1190 0 1190 0 0 -1460z m2800 0 l0 -1460 -1185 0 -1185 0 0 1460
0 1460 1185 0 1185 0 0 -1460z"/>
<path d="M11750 9550 c0 -5 -15 -10 -34 -10 -19 0 -38 -4 -41 -10 -3 -5 -15
-10 -26 -10 -10 0 -19 -4 -19 -10 0 -5 -9 -10 -19 -10 -23 0 -101 -40 -101
-52 0 -4 -7 -8 -16 -8 -9 0 -24 -8 -33 -18 -9 -10 -32 -29 -51 -42 -44 -31
-69 -56 -100 -100 -13 -19 -32 -42 -42 -51 -10 -9 -18 -22 -18 -28 0 -7 -9
-21 -20 -33 -11 -12 -20 -30 -20 -40 0 -10 -4 -18 -10 -18 -5 0 -10 -11 -10
-25 0 -14 -4 -25 -10 -25 -5 0 -10 -11 -10 -25 0 -14 -4 -25 -10 -25 -5 0 -10
-15 -10 -34 0 -19 -4 -38 -10 -41 -6 -4 -10 -77 -10 -185 0 -108 4 -181 10
-185 6 -3 10 -22 10 -41 0 -19 5 -34 10 -34 6 0 10 -11 10 -25 0 -14 5 -25 10
-25 6 0 10 -11 10 -25 0 -14 5 -25 10 -25 6 0 10 -9 10 -20 0 -11 5 -20 10
-20 6 0 10 -7 10 -15 0 -8 5 -15 10 -15 6 0 10 -7 10 -16 0 -9 8 -24 18 -33
10 -9 29 -32 42 -51 31 -44 56 -69 100 -100 19 -13 42 -32 51 -42 9 -10 24
-18 33 -18 9 0 16 -4 16 -8 0 -12 78 -52 101 -52 10 0 19 -4 19 -10 0 -5 9
-10 19 -10 11 0 23 -4 26 -10 3 -5 22 -10 41 -10 19 0 34 -4 34 -10 0 -6 68
-10 184 -10 113 0 187 4 191 10 3 6 19 10 36 10 16 0 37 4 47 9 9 5 28 13 42
19 57 22 120 56 120 64 0 4 8 8 18 8 10 0 24 9 32 20 8 11 20 20 26 20 12 0
134 117 134 129 0 5 11 21 25 37 14 16 25 35 25 42 0 6 4 12 8 12 8 0 42 63
64 120 6 14 14 33 19 42 5 10 9 30 9 46 0 15 5 33 11 39 6 6 10 74 10 183 0
109 -4 177 -10 183 -6 6 -11 26 -11 43 0 18 -4 36 -10 39 -5 3 -10 13 -10 21
0 22 -60 144 -71 144 -5 0 -9 8 -9 18 0 10 -9 24 -20 32 -11 8 -20 20 -20 26
0 15 -129 144 -144 144 -6 0 -18 9 -26 20 -8 11 -22 20 -32 20 -10 0 -18 4
-18 8 0 10 -77 52 -96 52 -8 0 -14 5 -14 10 0 6 -11 10 -24 10 -14 0 -28 5
-31 10 -3 6 -21 10 -40 10 -19 0 -37 5 -40 10 -4 6 -78 10 -191 10 -116 0
-184 -4 -184 -10z m305 -441 c11 -5 31 -13 45 -19 38 -15 60 -31 104 -76 44
-43 57 -63 98 -146 4 -10 8 -31 8 -48 0 -17 6 -39 12 -50 10 -16 10 -24 0 -40
-6 -11 -12 -33 -12 -50 0 -17 -4 -39 -10 -50 -5 -11 -14 -29 -20 -40 -40 -79
-96 -136 -180 -179 -61 -31 -72 -33 -163 -33 -59 0 -103 4 -110 11 -6 6 -19
11 -29 11 -10 0 -18 3 -18 8 0 4 -19 16 -41 27 -50 24 -98 78 -138 157 -28 55
-31 68 -31 159 0 94 2 102 36 166 19 38 45 79 57 91 29 32 120 92 139 92 7 0
18 4 24 9 19 20 186 20 229 0z"/>
<path d="M16165 9550 c-3 -5 -22 -10 -41 -10 -19 0 -34 -4 -34 -10 0 -5 -11
-10 -25 -10 -14 0 -25 -4 -25 -10 0 -5 -11 -10 -25 -10 -14 0 -25 -4 -25 -10
0 -5 -9 -10 -20 -10 -11 0 -20 -4 -20 -10 0 -5 -7 -10 -15 -10 -8 0 -15 -4
-15 -10 0 -5 -6 -10 -12 -10 -38 -1 -247 -210 -248 -247 0 -7 -4 -13 -8 -13
-7 0 -26 -37 -64 -130 -6 -14 -14 -33 -19 -42 -5 -10 -9 -29 -9 -42 0 -14 -4
-28 -10 -31 -6 -4 -10 -77 -10 -185 0 -108 4 -181 10 -185 6 -3 10 -17 10 -31
0 -13 4 -32 9 -42 5 -9 13 -28 18 -42 23 -59 80 -164 110 -201 54 -69 187
-188 211 -189 6 0 12 -4 12 -10 0 -5 7 -10 15 -10 8 0 15 -4 15 -10 0 -5 9
-10 20 -10 11 0 20 -4 20 -10 0 -5 11 -10 25 -10 14 0 25 -4 25 -10 0 -5 11
-10 25 -10 14 0 25 -4 25 -10 0 -5 15 -10 34 -10 19 0 38 -4 41 -10 4 -6 78
-10 191 -10 116 0 184 4 184 10 0 6 14 10 30 10 17 0 38 4 48 9 9 5 28 13 42
19 57 22 120 56 120 64 0 4 8 8 18 8 10 0 24 9 32 20 8 11 20 20 27 20 16 0
143 127 143 143 0 7 9 19 20 27 11 8 20 22 20 32 0 10 4 18 8 18 10 0 52 77
52 96 0 8 5 14 10 14 6 0 10 11 10 24 0 14 5 28 10 31 6 3 10 21 10 40 0 19 5
37 10 40 6 3 10 42 10 86 0 46 4 79 10 79 6 0 10 9 10 20 0 11 -4 20 -10 20
-6 0 -10 33 -10 79 0 44 -4 83 -10 86 -5 3 -10 21 -10 40 0 19 -4 37 -10 40
-5 3 -10 14 -10 24 0 23 -60 141 -72 141 -4 0 -8 8 -8 18 0 10 -9 24 -20 32
-11 8 -20 20 -20 27 0 16 -127 143 -143 143 -7 0 -19 9 -27 20 -8 11 -22 20
-32 20 -10 0 -18 4 -18 8 0 12 -118 72 -141 72 -10 0 -21 5 -24 10 -3 6 -22
10 -41 10 -19 0 -34 5 -34 10 0 6 -68 10 -184 10 -113 0 -187 -4 -191 -10z
m300 -440 c11 -4 35 -13 53 -20 17 -7 32 -16 32 -21 0 -5 6 -9 14 -9 18 0 97
-87 117 -130 69 -146 68 -221 -4 -365 -34 -68 -90 -120 -167 -156 -14 -6 -34
-16 -44 -21 -10 -6 -61 -10 -113 -10 -87 -1 -99 2 -160 33 -82 42 -139 98
-180 179 -31 58 -33 70 -33 160 0 89 3 102 32 158 17 34 45 76 62 95 41 43
116 97 136 97 9 0 20 4 26 9 19 19 184 20 229 1z"/>
<path d="M13240 9350 c0 -5 -5 -10 -11 -10 -13 0 -69 -56 -86 -88 -8 -12 -13
-56 -13 -99 0 -93 22 -139 90 -184 l43 -29 894 0 c491 0 893 4 893 8 0 4 13
15 28 24 16 10 41 35 56 57 24 34 28 51 29 113 1 69 -16 138 -34 138 -4 0 -11
9 -14 20 -3 11 -13 20 -21 20 -8 0 -14 5 -14 10 0 6 -7 10 -15 10 -8 0 -15 5
-15 10 0 7 -308 10 -905 10 -597 0 -905 -3 -905 -10z"/>
<path d="M13223 8534 c-65 -38 -93 -94 -93 -185 0 -57 5 -82 21 -109 24 -40
63 -80 79 -80 5 0 10 -4 10 -10 0 -7 308 -10 905 -10 597 0 905 3 905 10 0 6
7 10 15 10 8 0 15 5 15 10 0 6 6 10 13 10 6 1 25 21 41 46 25 40 29 55 29 125
0 70 -3 84 -28 119 -16 23 -41 48 -57 58 -15 9 -28 20 -28 24 0 4 -402 8 -892
8 l-893 0 -42 -26z"/>
</g>
</svg>
